<?xml version="1.0" encoding="utf-8"?>
<!-- Generator: Adobe Illustrator 23.0.5, SVG Export Plug-In . SVG Version: 6.00 Build 0)  -->
<svg version="1.1" id="Logo" xmlns="http://www.w3.org/2000/svg" xmlns:xlink="http://www.w3.org/1999/xlink" x="0px" y="0px"
	 viewBox="0 0 1920 1920" style="enable-background:new 0 0 1920 1920;" xml:space="preserve">
<style type="text/css">
	.st0{fill:none;stroke:#FFFFFF;stroke-width:19.3028;stroke-miterlimit:10;}
	.st1{fill:#FFFFFF;}
</style>
<g id="Nombre_1_">
	<g>
		<path class="st0" d="M961.4,1898.3c1057.5-549.3,809-1625.8,809-1625.8C1264.4,332.7,960,20.9,960,20.9S655.6,332.7,149.6,272.4
			c0,0-248.5,1076.5,809,1625.8l1.4,0.8L961.4,1898.3z"/>
		<path class="st1" d="M189,331.1c14.1,1,26.9,2,39.7,2.7c56.3,3.4,112.4,1.7,168.4-4.2c71-7.5,141-20.4,209.4-41.1
			c62.7-19,120.9-48.1,178-79.7c60.1-33.3,117.2-71.3,171.9-112.9c1.9-1.5,3.9-2.9,5.5-4c26.9,19.1,53.1,38.5,80.1,56.7
			c77.4,52.3,158.6,97.7,246.3,130.5c51.4,19.2,105,30.5,158.9,39.9c72.6,12.7,145.8,18.5,219.5,16.2c19.7-0.6,39.3-2.5,59-3.8
			c1.7-0.1,3.3,0,6.2,0c3.3,22.6,7.1,45.1,9.7,67.7c7.5,65.6,10.1,131.5,8.6,197.5c-3.1,137.3-21.9,272.2-60,404.4
			c-43.8,151.6-118.6,286.2-218.2,408.1c-125,153.1-269.5,283.9-437.1,388.9c-21.4,13.4-43.8,25.3-65.6,38.1
			c-4.7,2.8-8.4,2.8-13.3,0.2c-70.3-37.7-136.3-81.9-199.6-130.3c-150-114.8-279.6-249.1-386.3-405.2
			c-64.8-94.8-109.7-198.9-141.5-309c-25.1-86.9-41.1-175.5-50-265.5c-8.5-86.4-10.5-172.9-5.2-259.6c1.4-22.8,3.5-45.6,6.1-68.3
			C182,376,185.7,354,189,331.1z M861.3,1103.4c-25.9,16.6-54.4,23.4-84.8,20.7c-39.4-3.5-75-17.9-106.8-41.2
			c-36.8-26.9-54.6-63.6-54.1-109.1c0.4-33.6,9.8-65.3,22.5-95.9c22.7-54.8,40.3-110.7,45.6-170.3c3-33.9,2.1-66.8-11.3-98.8
			c-12.3-29.3-31.7-52.3-57.4-70.4c3,3.8,6.5,7.1,9.5,10.9c8.3,10.3,18,19.9,24.3,31.4c25,45.8,28.7,94.5,17.1,144.9
			c-9.4,40.7-25.5,79-41,117.5c-16.6,41.3-33.8,82.4-39.4,127c-5.5,44.1,3,84.7,31.2,120.1c19.2,24.1,43.5,41.6,70.6,55.5
			c58.3,30,121,41.4,185.8,43.8c1.9,0.1,4-0.1,5.6-0.9c14.5-7.9,28.8-15.9,43.6-24.1c-6.2-6.9-11.9-13.2-17.5-19.6
			c-11.3-13-22.6-26-33.9-39c2,1.4,4.1,2.5,5.9,4.1c17.2,14.7,34.4,29.4,51.4,44.4c3.4,3,6.2,4.4,10,1.1c15.6-13.5,31.4-13.5,47,0
			c3.9,3.4,6.6,1.8,10-1.2c11.3-10.1,22.7-19.8,34.2-29.7c7.9-6.8,15.9-13.6,23.8-20.5c0.3,0.3,0.6,0.6,0.8,0.9
			c-17.5,19.7-35.1,39.3-53,59.4c13.9,7.7,26.9,15.2,40.2,22.3c3,1.6,6.9,2.9,10.2,2.6c23.7-2.1,47.6-3.6,71.1-7.2
			c48-7.5,93.3-23.1,134.6-49.2c27.6-17.5,50.5-39.6,65.3-69.2c18-36,18.9-73.9,11.1-112.5c-7.6-37.6-22-73-36.3-108.4
			c-16.7-41.5-34.3-82.7-42.7-126.9c-12.4-65.8,1.3-124.3,49-173.1c1.1-1.1,1.9-2.3,2.9-3.5c-2.7,1.1-4.9,2.7-6.9,4.4
			c-2.6,2.2-5.2,4.4-7.8,6.7c-37.4,33.8-55.7,76.4-54.5,126.3c1.4,62.6,14.5,122.8,39,180.7c13.8,32.5,25.9,65.6,29.5,101.1
			c4,39.3-3.4,76-31.5,104.8c-41.4,42.4-92.5,63.7-152.2,60.6c-49.5-2.5-89.3-33.8-104.6-80.8c-9.7-29.9-14.8-60.9-18.5-92.1
			c-4.6-38.1-5.7-76,3.3-113.9c7-29.3,13-58.8,18.5-88.4c2.3-12.4,2-25.3,3-39.8c-19.9,11.8-37.9,22.8-56.2,33
			c-3,1.7-8.4,1.4-11.7-0.1c-7.8-3.7-15-8.8-22.5-13.2c-10.7-6.3-21.5-12.4-33.1-19.1c0,3,0,4.7,0,6.4c0,31.6,6.4,62.3,14,92.8
			c7.4,29.7,14.8,59.5,13.8,90.6c-1.3,42.7-7,84.7-17.1,126.3c-7,28.9-19.2,54.5-43.2,73.3 M925.7,616.7
			c-4.2-27.9-17-51.5-40.5-74.9c-29.3,22.2-52.6,49.9-73.6,79.6c-39.9,56.4-70.3,118-97.2,181.4c-29.8,70.2-54.3,142.2-77.1,214.9
			c-4.1,13-2.3,22.5,5.7,32.9c21.6,28,50.4,45.2,82.9,57.3c22,8.2,44.5,14,68.6,12.1c0.9-2.4,1.7-4.2,2.1-6.1
			c11.8-49.6,29.5-96.9,57.1-140c16.2-25.3,35.5-47.6,63.6-60.4c4.9-2.2,6.4-5,6.6-10.4c1.1-32.5-6.2-63.8-14.1-94.9
			c-8.8-34.5-15.2-69.4-13.8-105.2c0.2-4.3,1.5-8.6,2.3-12.9l0.3-1.3l0.5-1.3c4.7-9.5,8.7-18.9,13.7-27.6c6.3-11.1,13.9-22,13-35.5
			 M1025.2,690c0.8,4.7,2,8.9,2.2,13c1.4,37.8-5.9,74.5-15.2,110.9c-7.6,29.7-14.1,59.7-12.3,90.7c0.1,2.5,1.3,6.3,3.1,7.1
			c29.6,12.7,49.7,35.7,66.4,61.9c26.6,41.7,43.6,87.4,55.9,135c3.1,12.2,2.7,12.3,15.4,11.6c34.6-1.9,65.9-13.8,95.4-31.2
			c20.9-12.3,38.3-28.4,50.2-49.7c1.5-2.7,2.2-7,1.2-9.9c-15.9-49.2-31.1-98.7-48.5-147.4c-26.4-74.1-57.8-146.1-97.8-214.1
			c-24.1-40.8-51-79.5-86.3-111.7c-5.6-5.1-11.6-9.7-17.4-14.6c-5,6.8-8.5,13.1-13.4,18.1c-15.5,15.8-23.7,34.8-26.5,56.4l1.6,7.2
			c-1.3,15.4,5.9,27.5,13.2,40c4.4,7.6,7.4,16.1,11,24.2 M618.6,551c0.8,1.1,1.5,2.2,2.3,3.3c18.3,25.1,30.1,52.5,31.5,84
			c1.3,30.2-4.2,59.4-15.8,86.9c-16.4,38.9-34.6,77-52.6,115.2c-19.7,41.8-38.8,83.8-45,130.2c-8.8,65.1,8.6,122.3,52.9,170.9
			c31,34.1,69.6,57.4,111.5,75.4c57.1,24.6,117.1,38.6,178.7,45.7c9.1,1,17.2,3.2,22.9,10.9c12.6,16.9,16.5,34.8,7.3,54.7
			c-5.8,12.6-11.9,25-16.6,38c-4.6,12.8-5.1,25.5,5.3,36.9c2.5,2.8,3.1,8,3.4,12.1c0.5,9.3,2.4,13.1,11.7,13.2
			c30.4,0.6,60.7,0.5,91.1-0.1c8.8-0.2,10.9-4.1,11.2-12.9c0.2-3.7,0-8.6,2.2-11c12-12.8,10.8-27,5.3-41.5
			c-4.4-11.6-9.8-22.7-15.1-33.9c-9.5-20.3-5.8-38.8,7.4-55.9c4.3-5.6,9.9-8.6,17.2-9.8c29.5-4.8,59.2-8.9,88.3-15.6
			c59.1-13.7,115.3-34.7,165-70.6c38.1-27.6,67.4-62.1,83.3-107c17.8-50.4,13.6-100.4-2.4-150.3c-13.7-42.5-34.4-81.9-53.7-121.9
			c-16.2-33.5-32.1-67-41.2-103.3c-10.7-42.9-9-84.4,14.1-123.4c0.5-0.8,0.6-1.9,0.9-2.8c-2.2,1.9-3.7,4.1-5.1,6.4
			c-21.7,36.3-28.3,75.6-23.1,117.2c4.7,38,16.9,73.8,30.8,109.1c15.7,40,32,79.9,46.4,120.3c10.4,29.1,14.2,59.6,10.6,90.6
			c-4.5,39.1-24,71-49.2,99.8c-21.6,24.7-49.3,40.6-79.3,52.9c-54.3,22.3-111.4,31.9-169.5,36.4c-3.6,0.3-7.6,1.6-10.6,3.7
			c-23.4,16.2-46.5,32.7-69.7,49.1c-9.4,6.7-9.5,6.7-19,0c-23.5-16.5-46.9-33-70.5-49.4c-2.5-1.7-5.6-3.1-8.5-3.4
			c-18.1-2.1-36.3-3.5-54.4-5.9c-44.4-6.1-87.5-17-128.8-34.8c-49.3-21.3-83.9-57-105.8-105.6c-12.3-27.4-15-56.1-11.6-85.7
			c4.1-35.1,16.3-67.9,29.1-100.5c16.3-41.6,33.4-83,47.7-125.3c11.7-34.7,17.1-71,10-107.8C653.3,603.9,641.4,574.8,618.6,551z
			 M1025.9,1421c-13.1,11.4-13.1,11.9-29.4,12.8c-17,1-34.1,1.7-51,0.8c-16.3-0.8-34.4,3.8-48-13.9c-2.3,8.6-4.7,15.2-5.8,22
			c-10.8,67.6-14.5,135.8-14.7,204.2c0,10.4,5,16.3,14,18.5c15.3,3.8,30.7,7.3,46.2,9.7c31.3,4.8,62.1,0.3,92.2-8.6
			c14.6-4.3,17-7.7,16.7-22.4c-0.6-31.1-0.8-62.3-3.1-93.3c-2.7-36.1-7.3-72-11.4-108C1030.9,1436,1028.1,1429.2,1025.9,1421z
			 M844,1438.2c-1.1-3.4-1.5-4.7-2-5.9c-14-31.9-26.4-64.6-34.5-98.5c-6.1-25.5-10.4-51.4-15.2-77.2c-0.8-4.2-2.4-6.1-6.6-7.2
			c-32.5-8.4-64.2-19-94.8-33.2c-33-15.3-63.7-34.3-91.3-60.1c-2.7,10.8-4.6,20.7-7.6,30.4c-2.4,7.8-0.7,14.5,3.1,21.2
			c16.9,29.4,36.5,56.8,60.3,80.8c17,17.1,35.3,33.1,54,48.3c29.7,24,60.2,47.2,90.6,70.3C813.8,1417.4,828.1,1426.9,844,1438.2z
			 M1080.6,1436.9c13.9-9.9,27.8-19.7,41.7-29.7c44.1-31.6,86.8-65,126.9-101.5c31-28.2,56.3-61.3,77.1-97.7
			c2.2-3.9,5.2-8.6,4.6-12.5c-2-13.2-5.5-26.2-8.6-40.3c-55.1,51.3-121.2,77.1-190.7,95.5
			C1123.5,1315.4,1105.9,1376.7,1080.6,1436.9z M874.3,508.6c3.9-1.4,6.1-2.1,8.2-3c24.4-10.2,48.8-20.6,73.3-30.4
			c3.3-1.3,8.1-1.4,11.4-0.1c24.6,9.9,48.9,20.2,73.3,30.4c2.3,0.9,4.6,1.7,8.4,3c-29.5-87-58.5-172.2-87.3-257.2
			C932.8,336.3,903.9,421.5,874.3,508.6z M540.7,760.6c6.7-0.6,13.5-0.8,20.2-1.9c32.8-5.6,59.9-20.3,75.9-50.7
			c15.4-29.2,17.7-60.5,9.9-92.2c-12.5-50.5-46.1-85-88-112.7c-2.2-1.4-5.6-1.1-8.4-1.6c32.1,38.6,54.2,80.1,51.1,131.2
			C598.3,683.1,573.8,723.4,540.7,760.6z M1372.4,503c-0.4-0.7-0.7-1.3-1.1-2c-3.3,1.1-7.1,1.5-9.9,3.3
			c-18.2,11.5-34.4,25.4-48.6,41.7c-27.2,31.2-43,66.7-41.4,109c2.1,55.2,32.5,92.1,85.5,103c8.1,1.7,16.5,1.9,24.7,2.7
			c-33.5-37.3-58-77.6-61-128C1317.4,581.5,1339.6,540.1,1372.4,503z M1047.3,1196.3c-3.3-2-5.1-3.2-7-4.3
			c-15.3-8.2-30.8-16.2-46-24.6c-8.7-4.9-17-10.3-25.2-16c-5.3-3.8-9.7-3.6-15,0c-8.8,6-17.8,11.8-27.1,16.9
			c-16.7,9.2-33.6,17.8-51.8,27.4c29.9,21.1,58.2,41.1,86.4,61.1C990.3,1236.6,1018.3,1216.8,1047.3,1196.3z M904.1,685.2
			c20.2,5.8,38.3,11,56.5,16.2c0.7,0.2,1.5,0.2,2.1,0c18.1-5.2,36.2-10.4,56.1-16.2c-5.4-10-11.7-18.6-14.9-28.3
			c-4.8-14.3-15.6-19.7-28.2-25.2c-10-4.3-18-4.1-27.9-0.2c-13.6,5.4-24.4,12-29.6,26.8C915.1,667.3,909.4,675.4,904.1,685.2z
			 M890.6,540.2c21.9-9.2,43.1-18,64.2-27.2c4.9-2.1,8.9-2.2,13.8-0.1c21.1,9.2,42.4,17.9,64.2,27.1c1.8-5,3.4-9.7,5.3-15
			c-14.6-6.1-28.8-12.2-43.1-18.1c-11-4.6-22-12.8-32.9-12.7c-11.2,0.1-22.4,8.1-33.6,12.8c-14.7,6.1-29.4,12.4-44.3,18.6
			C886.3,530.6,888.3,535,890.6,540.2z M1014.3,562.7c-9.7-4.2-19.1-7-27.3-12c-16.8-10.2-32.9-11.3-49.8-0.4
			c-5.6,3.6-12.4,5.5-18.6,8.2c-3.2,1.4-6.4,2.8-9.9,4.4c2.7,4,4.8,7.2,7,10.5c13.4-6.1,26.5-11.8,39.4-18c4.6-2.2,8.4-2.3,13-0.1
			c12.9,6.2,25.9,12,39.1,18C1009.6,569.8,1011.7,566.7,1014.3,562.7z M993.9,610.5c0.9-4.7,1.5-8.2,2.2-11.8
			c-10.6-4.6-20.8-9.1-31.1-13.4c-1.6-0.7-3.9-1-5.5-0.4c-10.9,4.5-21.8,9.2-32.7,13.9c0.9,4.1,1.7,7.5,2.7,11.6
			c9.1-4,17.4-8.1,26-11.1c3.7-1.3,8.5-1.3,12.2,0C976.4,602.2,984.6,606.4,993.9,610.5z M996,716.1c-0.3-0.4-0.7-0.8-1-1.2
			c-7.2,3.3-14.7,6.1-21.7,9.9c-8.1,4.4-15.4,4.1-23.4-0.1c-7-3.7-14.4-6.6-21.6-9.8c-0.2,0.4-0.5,0.9-0.7,1.3
			c11.4,6.9,22.8,13.7,34.1,20.6C973.3,729.7,984.6,722.9,996,716.1z"/>
		<path class="st1" d="M910.3,1198.4c17.1-10.3,33.2-20,49.4-29.5c1-0.6,2.9-0.6,3.9,0c16.2,9.6,32.3,19.3,49.4,29.5
			c-16.9,11.6-32.8,22.6-48.9,33.4c-1.2,0.8-3.8,0.8-5,0C943.1,1221,927.2,1210,910.3,1198.4z"/>
	</g>
</g>
</svg>
