<?xml version="1.0" encoding="utf-8"?>
<!-- Generator: Adobe Illustrator 23.0.5, SVG Export Plug-In . SVG Version: 6.00 Build 0)  -->
<svg version="1.1" id="Capa_1" xmlns="http://www.w3.org/2000/svg" xmlns:xlink="http://www.w3.org/1999/xlink" x="0px" y="0px"
	 viewBox="0 0 1920 1920" style="enable-background:new 0 0 1920 1920;" xml:space="preserve">
<style type="text/css">
	.st0{fill:#FFFFFF;}
</style>
<path class="st0" d="M942,326.7c-0.2,0.1-0.3,0.2-0.5,0.3c-0.4,0.3-0.8,0.5-1.2,0.8c-0.7,0.5-1.3,1-2,1.5c-0.3,0.3-0.7,0.6-1,0.9
	c-0.4,0.4-0.8,0.7-1.2,1.1c-0.3,0.3-0.6,0.6-0.9,0.9c-0.6,0.6-1.2,1.2-1.7,1.9c-0.3,0.3-0.5,0.6-0.7,0.9c-0.4,0.5-0.8,1-1.1,1.5
	c-0.2,0.3-0.4,0.6-0.6,0.9c-0.5,0.8-1,1.5-1.4,2.3c-0.2,0.3-0.3,0.6-0.5,0.9c-0.3,0.7-0.7,1.3-1,2c-0.1,0.2-0.2,0.5-0.3,0.7
	c-0.4,0.9-0.7,1.8-1,2.7c-0.1,0.3-0.2,0.6-0.3,0.9c-0.2,0.8-0.5,1.7-0.7,2.6c0,0.2-0.1,0.3-0.1,0.5c-0.2,1-0.3,2-0.5,3
	c0,0.3-0.1,0.5-0.1,0.8c-0.1,1.1-0.2,2.1-0.2,3.2c0,0,0,0,0,0c0,0,0,0,0,0c0,0,0,0,0,0c0,19.6,15.9,35.6,35.6,35.6c0,0,0,0,0,0
	c0,0,0,0,0,0c0,0,0,0,0,0c1.1,0,2.1-0.1,3.2-0.2c0.3,0,0.5,0,0.8-0.1c1-0.1,2-0.3,3-0.5c0.2,0,0.4-0.1,0.6-0.1
	c0.8-0.2,1.7-0.4,2.5-0.6c0.3-0.1,0.5-0.2,0.8-0.2c0.9-0.3,1.8-0.6,2.7-1c0.3-0.1,0.5-0.2,0.8-0.4c0.7-0.3,1.4-0.6,2-1
	c0.3-0.1,0.5-0.3,0.8-0.4c0.8-0.4,1.6-0.9,2.3-1.4c0.3-0.2,0.6-0.4,0.9-0.6c0.6-0.4,1.1-0.8,1.7-1.3c0.3-0.2,0.6-0.5,0.9-0.7
	c0.6-0.5,1.2-1,1.7-1.6c0.3-0.3,0.6-0.6,0.9-0.9c0.5-0.5,0.9-1,1.4-1.5c0.3-0.4,0.7-0.8,1-1.2c0.4-0.5,0.7-0.9,1.1-1.4
	c0.3-0.4,0.5-0.7,0.8-1.1c0-0.1,0.1-0.1,0.2-0.2c0,0,0,0,0,0c3.6-5.5,5.6-12.1,5.6-19.2c0-19.6-15.9-35.6-35.6-35.6
	C953.8,321.4,947.4,323.4,942,326.7C942,326.7,942,326.7,942,326.7z"/>
<path class="st0" d="M827.8,476.7c-4.2-5.4-9-10.3-15.1-13.7c-7.3-4-15.5-6.1-23.8-6.1c-15.9,0-30,7.5-39,19.2
	c1.1,1.9,2.2,3.9,3.4,5.8c71.5,97,111.7,216.8,112.1,346.5v0c0.3,9.9,0.5,20.1,0.2,30.2h-1c-7.4,0-13.4,6-13.4,13.4
	c0,7.1,5.5,12.9,12.5,13.4c-1.5,11.6-3.9,22.9-7.8,33.7h-10.7c-14.1,0-22,12.4-22,23.8c0,11.4,8,20.9,18.6,23.2
	c0.3,0.1,0.7,0.1,1,0.2h-11.4c-21.9,0-32,17.4-32,33.3c0,15.9,11.1,29.1,26,32.4c2.3,0.5,4.7,0.8,7.2,0.8h39
	c0,154-32.1,307.4-90,438.7h-17.4c-9.8,0-16,10.6-11.2,19.2l28.3,34.2h358.4l28.3-34.2c4.8-8.6-1.4-19.2-11.2-19.2h-17.4
	c-59.2-132.5-92.1-282.9-92.1-438.7h41.4v0c18.2-0.2,33-15,33-33.2c0-18.4-14.9-33.3-33.3-33.3h-8.2c11.1-2,19.5-11.7,19.5-23.4
	c0-13.2-10.7-23.8-23.8-23.8h-11.2c-3.8-10.8-6.3-22.2-7.8-33.7c7-0.5,12.5-6.3,12.5-13.4c0-7.4-6-13.4-13.4-13.4h-1
	c-0.3-10.2-0.1-20.3,0.2-30.2l-0.3,0c0.3-129.7,40.9-249.5,112.4-346.5c1.1-1.9,2.2-3.9,3.4-5.8c-9-11.7-23.1-19.2-39-19.2
	c-8.3,0-16.5,2.1-23.8,6.1c-5.9,3.3-10.6,8-14.8,13.2c-23.6-49.5-74.1-83.7-132.6-83.7C901.9,392.5,851.3,427,827.8,476.7z"/>
<path class="st0" d="M960,20.2L180.3,256.6v29.7c0,141.6,4.4,273.5,13,391.9c8.2,112.8,20.5,217,36.6,309.8
	c29.8,172,72.7,309.6,131,420.6c110,209.2,256.4,284,385.6,350c67.9,34.7,132,67.4,186.6,116.8l26.9,24.3l26.9-24.3
	c54.6-49.4,118.7-82.1,186.6-116.8c129.2-66,275.7-140.8,385.6-350c58.3-111,101.2-248.6,131-420.6c16.1-92.8,28.4-197,36.6-309.8
	c8.6-118.4,13-250.3,13-391.9v-29.7L960,20.2z M1592.9,1067.2c-23.2-4-42-13.3-50.5-30.1c-19.9-39.4,22.8-108.7,67-150.7
	c-45.6-60.7-99.6-114.9-160.3-160.8c-42.4,44.3-113.9,91.1-153.2,65.4c-37-24.2-34.6-105.7-17.2-164.2c-44.6-19-91.3-34.2-139.8-45
	c-33,67.4-51.9,141.6-55.7,219.1h0.5l-1,28.5c-0.1,4.1-0.2,7.9-0.3,11.5c2.7,2.3,5.2,5,7.2,7.9c229.9,56.5,399.1,258.9,410.6,498.7
	c-4,8.2-8,16.2-12.1,24c-65.9,125.5-145.7,196.3-228.6,248.5c-8.3-5.6-17.3-10.5-25.9-15.5c-11.9-7-23.4-14.7-34.4-23.1
	c-11-8.3-21.5-17.2-31.5-26.7c-5.1-4.9-10.1-9.9-14.9-15c-1.9-2-12.7-14.2-12.7-14.2H962.4h-1.7h-1.7H780.9c0,0-10.8,12.2-12.7,14.2
	c-4.8,5.2-9.8,10.2-14.9,15c-10,9.5-20.5,18.4-31.5,26.7c-11,8.3-22.5,16-34.4,23.1c-8.8,5.2-18,10.2-26.5,15.9
	c-83.2-52.3-163.1-123.1-229.3-248.9c-4.1-7.8-8.1-15.9-12.1-24c0.1-1.2,0.1-2.4,0.2-3.5c13.6-243.4,186.1-440.3,411.3-495.4
	c2-2.8,4.4-5.4,7-7.7c-0.1-3.6-0.2-7.4-0.3-11.5l0-0.4l0-0.4c-0.2-87.8-19.5-171.7-56.3-247c-47.9,10.7-94.2,25.7-138.6,44.6
	c17.3,58.9,22,144.3-19.9,165.5c-39.4,19.9-108.7-22.8-150.7-67c-60.7,45.6-114.9,99.5-160.8,160.3c44.3,42.4,91,113.9,65.4,153.2
	c-9.5,14.6-28,23-50.4,26.9c-43-195.9-64.8-444-66.1-748.9L960,103.9L1659.6,316C1658.2,622.1,1636.3,870.9,1592.9,1067.2z"/>
</svg>
