<?xml version="1.0" encoding="utf-8"?>
<!-- Generator: Adobe Illustrator 23.0.5, SVG Export Plug-In . SVG Version: 6.00 Build 0)  -->
<svg version="1.1" id="Capa_1" xmlns="http://www.w3.org/2000/svg" xmlns:xlink="http://www.w3.org/1999/xlink" x="0px" y="0px"
	 viewBox="0 0 1920 1920" style="enable-background:new 0 0 1920 1920;" xml:space="preserve">
<style type="text/css">
	.st0{fill:#FFFFFF;}
</style>
<path class="st0" d="M960,35.1C449.2,35.1,35.1,449.2,35.1,960s414.1,924.9,924.9,924.9s924.9-414.1,924.9-924.9
	S1470.8,35.1,960,35.1z M1581,1581c-80.7,80.7-174.6,144-279.2,188.2c-108.3,45.8-223.3,69-341.9,69s-233.6-23.2-341.9-69
	C513.6,1725,419.6,1661.7,339,1581c-80.7-80.7-144-174.6-188.2-279.2c-45.8-108.3-69-223.3-69-341.9s23.2-233.6,69-341.9
	C195,513.6,258.3,419.6,339,339c80.7-80.7,174.6-144,279.2-188.2c108.3-45.8,223.3-69,341.9-69s233.6,23.2,341.9,69
	C1406.4,195,1500.4,258.3,1581,339c80.7,80.7,144,174.6,188.2,279.2c45.8,108.3,69,223.3,69,341.9s-23.2,233.6-69,341.9
	C1725,1406.4,1661.7,1500.4,1581,1581z M784,1342.8c-10-1.2-16.1-4.6-18.1-10.4c-2.1-5.8,0.1-12.9,6.6-21.4
	c6.4-8.5,18.1-16.4,35.1-23.9l-6.6-15.8c-5.4,3.3-11.9,6.7-19.7,10c-6.7,2.8-14.9,6-24.7,9.4c-9.8,3.5-21.2,6.7-34.3,9.8
	c17.2-13.9,35.6-24.9,55.3-32.9c19.7-8.1,40.4-12.1,62.2-12.1c15.4,0,25.7,3,30.8,9.1c5.1,6,6.4,13.2,3.7,21.6
	c-2.7,8.4-8.6,17-17.7,25.8c-9.1,8.9-20.2,16.1-33.3,21.8C807.2,1341,794.1,1344,784,1342.8z M804.3,1513.3
	c-1.9-2.8-2.8-6.7-2.5-11.6c0.3-4.9,1.5-10.6,3.7-17.1c2.2-6.6,5.2-13.5,9.1-21c4.9-10,9.5-18.5,13.9-25.4
	c4.4-6.9,8.7-12.5,12.9-16.8c4.2-4.2,8.5-7.3,12.7-9.2c4.2-1.9,8.8-2.9,13.7-2.9c5.1,0,8.9,1.8,11.2,5.4l-32,78.2
	c-1.5,3.3-2.7,6.7-3.5,10c-5.1,4.6-10.3,8.2-15.4,10.8c-5.1,2.6-9.9,3.9-14.3,3.9C809.3,1517.6,806.2,1516.2,804.3,1513.3z
	 M1115.5,1296.9c-1.1,2.9-2.9,5.1-5.3,6.6c-2.4,1.5-5.3,2.3-8.6,2.3c-3.5,0-6.2-0.7-8.1-2.2c-1.9-1.5-2.9-3.5-2.9-6
	c0-2.2,0.8-4.1,2.4-5.6c1.6-1.5,4.5-2.2,8.8-2.2h13.7V1296.9z M1141.1,1297.1c-1.4-2.6-2.2-5.5-2.2-8.9c0-3.4,0.7-6.4,2.2-9
	c1.4-2.5,3.4-4.5,5.8-5.9c2.4-1.4,5.2-2.1,8.2-2.1c3.1,0,5.9,0.7,8.3,2.1c2.5,1.4,4.4,3.4,5.8,5.9c1.4,2.5,2.1,5.5,2.1,9
	c0,3.4-0.7,6.3-2.1,8.9s-3.3,4.6-5.8,6c-2.5,1.4-5.2,2.1-8.3,2.1c-3,0-5.8-0.7-8.2-2.1C1144.5,1301.7,1142.5,1299.7,1141.1,1297.1z
	 M1325.7,1296.9c-1.1,2.9-2.9,5.1-5.3,6.6c-2.4,1.5-5.3,2.3-8.6,2.3c-3.5,0-6.2-0.7-8.1-2.2c-1.9-1.5-2.9-3.5-2.9-6
	c0-2.2,0.8-4.1,2.4-5.6c1.6-1.5,4.5-2.2,8.8-2.2h13.7V1296.9z M1195,1285.6c0.2-2.4,0.8-4.7,1.9-6.6c1.3-2.5,3.2-4.4,5.6-5.8
	c2.4-1.4,5.1-2.1,8-2.1c3,0,5.7,0.7,8,2.1c2.3,1.4,4.2,3.3,5.5,5.8c1.1,2,1.7,4.2,2,6.7H1195z M1010.4,1296.9
	c-1.1,2.9-2.9,5.1-5.3,6.6c-2.4,1.5-5.3,2.3-8.6,2.3c-3.5,0-6.2-0.7-8.1-2.2c-1.9-1.5-2.9-3.5-2.9-6c0-2.2,0.8-4.1,2.4-5.6
	c1.6-1.5,4.5-2.2,8.8-2.2h13.7V1296.9z M932.5,1257.3h15.4c5.8,0,10.2,1.3,13.2,3.8c3,2.5,4.5,6.1,4.5,10.8c0,4.6-1.5,8.1-4.5,10.7
	c-3,2.5-7.4,3.8-13.2,3.8h-15.4V1257.3z M783.5,884.4c-8.5-25.9-25.7-43.4-50.9-54.2c22.8,0,56.4,24.2,65.6,47.2
	c-3.3,1.5-6.7,3.1-10.7,4.9c-1.2-2.4-2.4-4.8-4.1-8.2C783.5,878.2,783.5,881.3,783.5,884.4z M1380.9,442.8
	c-6.6-25.3-3.5-43.4,11.1-60.1c0.1-0.1,0.1-0.1,0.2-0.2c0.6-0.6,1.2-1.3,1.8-1.9c0.2-0.2,0.3-0.3,0.5-0.5c0.7-0.7,1.4-1.4,2.1-2.1
	c0,0,0,0.1,0,0.1C1396.3,423.9,1394.7,430.6,1380.9,442.8z M1395,433.5c9.3-21,29.7-20.6,48.2-26.3
	C1432.1,426.2,1415.4,432.6,1395,433.5z M1402.4,415.7c-1.7-25.5,3.4-48.3,28.7-63.6c-0.4,1-0.8,2-1.1,3c-0.1,0.2-0.1,0.4-0.2,0.6
	c-0.3,1-0.7,2.1-1,3.1v0C1422.7,379.8,1423.6,402.9,1402.4,415.7z M750.9,670.2c12.7-12,23.4-15.6,36.1-12.4
	c-29.8,8.5-30.9,9.2-33.7,18c4.7-2.7,10-5.7,15.2-8.7c0.4,0.8,0.8,1.5,1.3,2.3c-1.3,0.8-2.6,1.6-3.9,2.4c-11.9,6.8-12.3,9.2-3,18.9
	c3.1,3.2,5.8,6.9,9.4,9.5c2.3,1.6,5.9,2.6,8.6,2.2c8.9-1.3,17.8-3.6,27.5,1.7c-10.3,0.8-19.4,1.5-30.7,2.4
	c19.9,20.9,37.8,39.5,55.3,58.3c7.1,7.6,10.9,20.4,26,13.1c-1.8,1.6-3.3,2.1-4.7,2.7c-1.3,0.6-2.7,1.2-3.1,1.4
	c12.6,19.6,26.7,36.2,53,25.5c1.8-21.7,3.9-43.8,5.3-65.9c0.8-12.2-1.3-14.5-13.8-15.2c-12.6-0.7-22.5-5.4-30-15.9
	c-2-2.8-6.5-4.8-10.1-5.4c-22-3.6-44.1-6.6-66.1-10c-2.7-0.4-5.4-1.6-8.1-2.5c0.1-0.9,0.3-1.7,0.4-2.6c23.3-5.9,47.1-7.2,71.8-6.1
	c-4.8-23.4,2.4-43.2,13.8-61.8c-0.8-0.7-1.7-1.4-2.5-2c-0.1-0.1-0.2-0.1-0.3-0.2c-16.7-12.8-36.9-16.3-55.3-23.8
	c18.5,2.3,36,7.2,51.6,17.3c1.2,0.8,2.4,1.6,3.5,2.4c0,0,0,0,0,0c1.2,0.8,2.3,1.7,3.5,2.6c0.5,0.4,1,0.8,1.5,1.2
	c1.7-2.4,2.9-4.2,4.2-6c0.1-0.2-0.2-0.5-0.4-1.3c-1.6-1.1-3.2-2.1-4.8-3.1c-1.3-0.8-2.6-1.6-3.9-2.4c-0.3-0.2-0.6-0.4-0.9-0.5
	c-50.5-30.4-108.8-38-167.1-50.1c4-1.4,6.5-2.5,9.2-3.1c24.1-5.9,48.6-7.6,72.9-2.2c18,4,35.5,9.8,53.2,14.8
	c-14-6.1-28-12.1-42.5-18.4c16.6,1.9,31.6,7.1,45.4,15.4c2.3,1.4,4.5,2.8,6.7,4.4c0,0,0,0,0.1,0c1.1,0.8,2.2,1.5,3.2,2.3
	c1.1,0.8,2.2,1.7,3.2,2.5c0.2-1.1,0.9-2.5,0.5-3.3c-9.8-19.3-19-38.8-29.8-57.5c-5.1-8.9-11.5-19-20-23.8c-2-1.1-3.9-2.2-5.9-3.3
	c-18.6-10.2-38-18.8-57.7-26.7c-12.9-5.2-27.1-6.9-40.6-10.5c-12.1-3.2-24-7-36.3-10.6c1.1-1.6,1.4-2.4,1.8-2.5
	c34.8-5.9,68.7-1.4,102.2,7.4c2.3,0.6,4.5,1.2,6.8,1.9c2.4,0.7,4.6,2.1,6.9,3.2c-13.7-22.9-27.9-44.9-44.4-65.1
	c-15.2-18.6-33.6-34.2-57.8-40.5c-0.7-0.2-1.4-0.4-2.1-0.5c-0.2,0-0.4-0.1-0.6-0.1c-0.5-0.1-1-0.2-1.6-0.3c-0.2,0-0.4-0.1-0.6-0.1
	c-0.5-0.1-1-0.2-1.5-0.2c-0.2,0-0.4,0-0.6-0.1c-0.5-0.1-1-0.1-1.5-0.2c-0.2,0-0.3,0-0.5,0c-0.5,0-1-0.1-1.5-0.1c-0.1,0-0.3,0-0.4,0
	c-0.5,0-1,0-1.6,0c-0.1,0-0.2,0-0.3,0c-0.5,0-1.1,0-1.6,0c-0.1,0-0.2,0-0.3,0c-0.6,0-1.1,0.1-1.6,0.1c-0.1,0-0.1,0-0.2,0
	c-0.6,0.1-1.1,0.1-1.7,0.2c0,0-0.1,0-0.1,0c-0.6,0.1-1.1,0.2-1.7,0.3c0,0-0.1,0-0.1,0c-0.6,0.1-1.1,0.2-1.7,0.4c0,0,0,0,0,0
	c-0.6,0.1-1.1,0.3-1.7,0.5c0,0,0,0,0,0c-2.3,0.7-4.4,1.6-6.4,2.7l0,0c-7.7,4.3-13.2,11.9-15.6,22c-5,20.7-1.7,41,3,61.3
	c5.7-4.7,11-9,16.4-13.4c0.5,0.6,1,1.3,1.5,1.9c-3,2.6-6.7,4.7-8.9,7.9c-2.9,4.2-7.1,9.8-6.2,13.8c3.4,15.9,8.6,31.5,13,46.8
	c7.4-5,13.6-9.2,19.8-13.4c0.5,0.7,0.9,1.4,1.4,2.1c-19.8,12.3-21,15.7-12.2,30c7.1-5.7,14.3-11.5,21.6-17.3
	c0.6,0.8,1.3,1.6,1.9,2.5c-3.8,2.7-7.7,5.2-11.3,8.3c-10.3,8.8-11.6,12.4-5,24.2c28.3,50.2,57.1,100.1,85.7,150.1
	C749.5,670.1,750.3,670.1,750.9,670.2z M817.7,677.9c-16.7,3.6-31.3,6.8-47.1,10.2C784.4,677.8,799.6,676.4,817.7,677.9z
	 M692.6,428.2c-13.8,1.1-27.5,2.2-41.7,3.3C664.2,422.9,678.4,425.5,692.6,428.2z M742.8,541.5c-16.6,3-33.1,5.9-49.7,8.9
	C708.8,542.8,725.2,539.2,742.8,541.5z M745,573.4c10.9,2.5,21.8,5.1,32.6,7.6c-0.3,1.1-0.6,2.1-0.9,3.2
	c-10.8-2.6-21.6-5.2-32.5-7.8C744.6,575.4,744.8,574.4,745,573.4z M779.5,461c0.3,0.2,0.6,0.5,0.9,0.7c0.6,0.4,1.1,0.9,1.7,1.3
	c0.4,0.3,0.8,0.7,1.2,1c0.5,0.4,1,0.8,1.5,1.2c0.5,0.4,1,0.8,1.4,1.3c0.4,0.4,0.8,0.7,1.3,1.1c0.6,0.5,1.1,1.1,1.7,1.6
	c0.3,0.3,0.7,0.6,1,0.9c0.9,0.9,1.8,1.8,2.7,2.7c-2.2-0.9-4.4-1.7-6.6-2.6c-2.1-0.8-4.1-1.6-6.1-2.4c0,0,0,0,0,0
	c-14.1-5.7-27.8-11.3-41.8-15.7c-18.3-5.7-37.2-9.1-55.7-14.3C718.4,434.3,751.4,439.4,779.5,461z M848.8,584.3
	c0.4,0.3,0.8,0.6,1.2,0.9c0.1,0.1,0.2,0.2,0.3,0.2c0.4,0.3,0.7,0.6,1.1,0.9c0.1,0.1,0.2,0.2,0.3,0.3c0.3,0.3,0.7,0.6,1,0.9
	c0.1,0.1,0.2,0.2,0.4,0.3c0.3,0.3,0.6,0.6,0.9,0.8c0.1,0.1,0.3,0.2,0.4,0.4c0.3,0.3,0.6,0.5,0.8,0.8c0.1,0.1,0.3,0.3,0.4,0.4
	c0.3,0.3,0.5,0.5,0.7,0.8c0.1,0.2,0.3,0.3,0.4,0.5c0.2,0.2,0.5,0.5,0.7,0.7c0.1,0.2,0.3,0.3,0.4,0.5c0.2,0.2,0.4,0.5,0.6,0.7
	c0.2,0.2,0.3,0.4,0.4,0.5c0.2,0.2,0.4,0.4,0.5,0.6c0.2,0.2,0.3,0.4,0.4,0.6c0.1,0.2,0.3,0.4,0.4,0.6c0.2,0.2,0.3,0.4,0.4,0.6
	c0.1,0.2,0.2,0.4,0.4,0.5c0.2,0.2,0.3,0.5,0.5,0.7c0.1,0.1,0.2,0.3,0.3,0.4c0.2,0.4,0.5,0.8,0.7,1.2c-1.2-0.8-2.4-1.5-3.6-2.2
	c-0.5-0.3-1.1-0.6-1.6-0.9c-0.6-0.4-1.3-0.8-1.9-1.1c-0.7-0.4-1.4-0.8-2.1-1.2c-0.4-0.2-0.9-0.5-1.3-0.7c-0.8-0.5-1.7-0.9-2.5-1.3
	c-39.8-21-83.9-27.2-127.5-36.9c41.8-9.3,93.7,6.6,121.9,25.9c0,0,0,0,0,0c0.5,0.4,1,0.7,1.5,1.1c0,0,0.1,0.1,0.1,0.1
	c0.5,0.3,1,0.7,1.4,1c0.1,0,0.1,0.1,0.2,0.1c0.4,0.3,0.9,0.7,1.3,1C848.6,584.2,848.7,584.3,848.8,584.3z M1370.8,465.9
	c6.3-18.1,20.7-27.1,54.3-33.5C1413.8,454.7,1394.1,463.7,1370.8,465.9z M774.4,892.5c-11.1-29.6-30.5-48.7-58.5-62.3
	C751.2,835.1,782.1,867.2,774.4,892.5z M1459.5,385.3c0.4,0,0.7-0.1,1.1-0.1c-0.5,0.7-1,1.4-1.5,2c-10.2,13.1-22.4,19.6-39.8,18.9
	C1429.7,392.5,1442.8,386.9,1459.5,385.3z M693.5,639.1c0.1,0.1,0.2,0.1,0.2,0.2c1.1,0.7,2.1,1.4,3.1,2.2c-1.8-0.3-3.5-0.6-5.2-0.9
	c-1-0.2-2.1-0.4-3.1-0.5c0,0,0,0,0,0c-13.8-2.4-26.8-5-39.9-6c-16.1-1.3-32.4-0.6-48.6-0.7c-16.2-0.1-32.4,0-45.5,0
	c32.2-17.1,90.9-17.2,127.6-0.4c0,0,0,0,0,0c0.4,0.2,0.9,0.4,1.3,0.6c0.9,0.4,1.7,0.8,2.6,1.3c0.4,0.2,0.7,0.4,1.1,0.6
	c0.9,0.5,1.9,1,2.8,1.5c0.2,0.1,0.4,0.3,0.6,0.4C691.5,637.9,692.5,638.5,693.5,639.1z M1459.7,348.7
	C1459.7,348.7,1459.7,348.7,1459.7,348.7C1459.7,348.7,1459.7,348.7,1459.7,348.7c0.9-1.2,2-2.3,3.1-3.3c0,0,0,0,0,0
	c1.1-1,2.3-1.9,3.6-2.8c0.1-0.1,0.2-0.1,0.2-0.2c1.2-0.8,2.5-1.6,3.8-2.3c0.2-0.1,0.4-0.2,0.7-0.3c0.5-0.3,1.1-0.6,1.6-0.8
	c0.4-0.2,0.8-0.4,1.2-0.6c0.3-0.2,0.7-0.3,1-0.5c0.5-0.2,0.9-0.4,1.4-0.6c0.2-0.1,0.5-0.2,0.7-0.3c0.7-0.3,1.4-0.6,2.1-0.9
	c0.2-0.1,0.4-0.2,0.7-0.3c0.8-0.3,1.5-0.6,2.3-0.9c-0.3,0.5-0.5,1-0.8,1.5c-0.1,0.2-0.2,0.3-0.2,0.5c-0.2,0.4-0.3,0.7-0.5,1.1
	c-0.1,0.2-0.2,0.3-0.3,0.5c-0.2,0.4-0.3,0.7-0.5,1.1c-0.3,0.6-0.6,1.2-0.9,1.8c0,0.1-0.1,0.1-0.1,0.2c-0.2,0.4-0.4,0.9-0.6,1.3
	c0,0.1-0.1,0.2-0.1,0.3c-0.2,0.5-0.5,0.9-0.7,1.4c0,0,0,0,0,0.1c-0.2,0.5-0.5,1-0.7,1.4c0,0.1-0.1,0.1-0.1,0.2
	c-0.2,0.4-0.4,0.8-0.6,1.2c-0.1,0.1-0.1,0.2-0.2,0.3c-0.2,0.4-0.4,0.8-0.7,1.2c0,0.1-0.1,0.1-0.1,0.2c-0.3,0.4-0.5,0.9-0.8,1.3
	c0,0.1-0.1,0.1-0.1,0.2c-0.2,0.4-0.5,0.7-0.7,1.1c-0.1,0.1-0.1,0.2-0.2,0.3c-0.2,0.3-0.5,0.7-0.7,1c-0.1,0.1-0.1,0.1-0.2,0.2
	c-0.3,0.4-0.6,0.8-0.9,1.1c0,0,0,0.1-0.1,0.1c-0.3,0.3-0.6,0.7-0.9,1c-0.1,0.1-0.2,0.2-0.2,0.3c-0.3,0.3-0.5,0.5-0.8,0.8
	c-0.1,0.1-0.2,0.1-0.2,0.2c-3.6,3.2-8.2,5.2-14.9,5.3C1455,356.5,1456.9,352.2,1459.7,348.7z M778.9,844.4
	c31.1-9.6,61.3-11.6,88.3-1c-26.5,1.1-55.9,2.4-85.3,3.6C781.3,847.1,780.5,845.9,778.9,844.4z M1474.6,364.7
	c0.1,0.1,0.2,0.2,0.2,0.3c-0.3,0.2-0.5,0.4-0.8,0.6c-8.8,6.5-17.7,13-28.4,20.9c1.3-16.3,9.8-20.4,19.4-22.4c0,0,0,0,0,0
	c0.6-0.1,1.2-0.2,1.9-0.4c0.1,0,0.2,0,0.3,0c0.6-0.1,1.2-0.2,1.8-0.3c0.1,0,0.2,0,0.4-0.1c0.6-0.1,1.3-0.2,1.9-0.3
	c0.7-0.1,1.3-0.2,2-0.3c0.4,0.6,0.8,1.2,1.2,1.8C1474.5,364.6,1474.5,364.7,1474.6,364.7z M576,525.8c0.1,0,0.2,0.1,0.3,0.1
	c0.5,0.2,1,0.3,1.5,0.5c0.1,0.1,0.3,0.1,0.4,0.2c0.4,0.2,0.9,0.3,1.3,0.5c0.2,0.1,0.3,0.1,0.5,0.2c0.4,0.2,0.8,0.3,1.2,0.5
	c0.2,0.1,0.3,0.1,0.5,0.2c0.4,0.2,0.8,0.3,1.2,0.5c0.1,0.1,0.3,0.1,0.4,0.2c0.4,0.2,0.8,0.4,1.3,0.6c0.1,0.1,0.2,0.1,0.3,0.2
	c0.5,0.2,1,0.5,1.5,0.7c0,0,0,0,0.1,0c0.5,0.3,1,0.5,1.6,0.8c0,0,0,0,0.1,0c0.5,0.3,0.9,0.5,1.4,0.8c0.1,0.1,0.3,0.2,0.4,0.2
	c0.3,0.2,0.7,0.4,1,0.6c0.2,0.1,0.3,0.2,0.5,0.3c0.3,0.2,0.6,0.4,0.9,0.6c0.2,0.1,0.3,0.2,0.5,0.3c0.3,0.2,0.5,0.4,0.8,0.5
	c0.2,0.1,0.3,0.2,0.5,0.4c0.2,0.2,0.5,0.4,0.7,0.6c0.2,0.1,0.3,0.2,0.5,0.4c0.2,0.2,0.5,0.4,0.7,0.6c0.1,0.1,0.3,0.2,0.4,0.4
	c0.2,0.2,0.5,0.4,0.7,0.7c0.1,0.1,0.2,0.2,0.3,0.3c0.3,0.3,0.7,0.7,1,1c-1.2-0.4-2.4-0.8-3.6-1.1c-0.2-0.1-0.4-0.1-0.6-0.2
	c-1-0.3-2.1-0.6-3.1-0.9c-0.1,0-0.2-0.1-0.3-0.1c-1.1-0.3-2.3-0.6-3.4-0.9c0,0,0,0,0,0c-1.2-0.3-2.4-0.6-3.7-0.8l0,0
	c-31.9-6.7-64.6-2.2-97.6-2.9C510.6,518.5,549.5,517.3,576,525.8z M1428.7,390.9c0.9-21.5,6-40.4,27.9-51.5c-0.5,1.2-1,2.5-1.5,3.8
	c-0.5,1.5-1,3-1.5,4.5c0,0.1,0,0.1,0,0.2c-0.5,1.5-0.9,3-1.4,4.5c0,0,0,0,0,0C1447.9,367.3,1444.3,382.2,1428.7,390.9z M778.3,740.7
	c-38.6-7.2-76.2,4.4-114.3,5.4C701.5,731.5,739.4,724.7,778.3,740.7z M904.4,819.4c-6.7-0.9-13.5-1.7-20.2-2.6
	c0-0.4,0.1-0.7,0.1-1.1c6.8,0,13.6,0,20.4,0C904.6,817,904.5,818.2,904.4,819.4z M859.2,695.6c-0.6,1-1.2,1.9-1.7,2.9
	c-16.3-2.1-32.6-4.3-48.9-6.4c0.1-0.9,0.1-1.8,0.2-2.7c14.3,0,28.6-0.3,42.9,0.3C854.1,689.8,856.6,693.5,859.2,695.6z M900.8,838.5
	c-4.7-5-8.6-9.3-13.9-15.1c6.4,1.4,10.8,2.3,15.8,3.4C902.1,830.7,901.5,833.9,900.8,838.5z M667,755.9c0.5,1.2,0.9,2.4,1.4,3.5
	c-12.7,1.4-24.7,4.3-33.6,16c16.2,11.4,22.8,32.5,43.7,38.5c19,5.5,37.8,12.6,58,4.5c-1.6,1.2-3.2,2.5-3.7,2.9
	c11.5,4.8,23.3,10,35.3,14.6c4,1.5,8.8,2.6,13,2c12.9-1.8,25.6-4.8,38.5-6.7c26.7-4,49.7,4.3,70,22.4c-32.7-6-65.3-6.4-98.3,1.1
	c4,5.3,7.4,10.7,11.8,15.2c2.1,2.2,6.1,3.7,9.1,3.5c9.2-0.5,18.3-2.6,27.5-2.8c18-0.5,36-0.1,53.8-0.1c6.5-19.2,4-25.7-12.6-34.4
	c-1.2-2.1-2.1-4.4-3.6-6.2c-25.5-28.4-51-56.7-76.6-85c-2.2,1.1-4.6,3.5-6.5,3.1c-31.3-5.9-62.5-3.8-93.7,0.3
	c-19.9,2.6-39.9,4.4-60.2,5c24.6-13.6,50.2-23.3,78.4-26.8c29.1-3.6,55.4,2.9,80.2,17.5c-2-2.3-3.6-5.7-6.1-6.8
	c-12.3-5.1-24.8-9.7-37.2-14.3c-2.3-0.9-4.7-1.5-7.1-2.2c0.2-0.8,0.5-1.5,0.7-2.3c12.3,3.6,24.6,7.2,36.9,10.8
	c0.7-0.8,1.4-1.7,2.1-2.5c-23-22.7-45.3-46.2-69.3-67.8c-5.1-4.6-10.9-7.9-17.1-10.2h0c-1.2-0.5-2.5-0.9-3.7-1.3c0,0-0.1,0-0.1,0
	c-1.3-0.4-2.5-0.8-3.8-1.1c0,0,0,0,0,0c-9.5-2.5-19.6-3.4-29.1-3.9c-39-2.1-78.2-1.2-117.3-1.3c-6.3,0-12.7,1.5-19,2.4
	c40.3-27.4,85.1-30.8,131.6-24.7c0-0.8-0.1-1.7-0.1-2.5c-15-1.5-29.9-3-44.9-4.5c17.2-4.4,33.6-0.9,50.5,3.6c1.9,0.5,3.9,1,5.9,1.6
	c1.9,0.5,3.9,1,5.9,1.5c-10.3-12.6-20.2-23.9-29.2-35.8c-0.8-1.1-1.7-2.2-2.5-3.2c-0.2-0.3-0.5-0.6-0.7-0.8
	c-0.7-0.9-1.5-1.8-2.3-2.7c-0.1-0.2-0.3-0.3-0.4-0.5c-0.9-1-1.8-2-2.7-2.9c-0.2-0.2-0.4-0.5-0.7-0.7c-0.8-0.8-1.5-1.6-2.3-2.3
	c-0.2-0.2-0.4-0.4-0.6-0.6c-0.9-0.9-1.9-1.8-2.8-2.7c-0.2-0.2-0.4-0.3-0.6-0.5c-0.8-0.7-1.6-1.4-2.5-2.1c-0.2-0.2-0.5-0.4-0.7-0.6
	c-1-0.8-2-1.6-3-2.4c-0.1-0.1-0.2-0.1-0.3-0.2c-0.9-0.7-1.9-1.4-2.8-2.1c-0.2-0.2-0.5-0.3-0.7-0.5c-2.1-1.5-4.3-2.9-6.4-4.2
	c-0.2-0.1-0.5-0.3-0.7-0.4c-1-0.6-2-1.2-3-1.7c-0.1-0.1-0.2-0.1-0.3-0.2c-1.1-0.6-2.3-1.2-3.4-1.8c-0.2-0.1-0.4-0.2-0.6-0.3
	c-1-0.5-2-1-3.1-1.4c-0.2-0.1-0.4-0.2-0.5-0.2c-1.2-0.5-2.4-1-3.6-1.5c-0.1-0.1-0.3-0.1-0.4-0.2c-1.1-0.4-2.2-0.8-3.3-1.2
	c-0.2-0.1-0.4-0.2-0.7-0.2c-1.3-0.4-2.5-0.8-3.8-1.2c0,0,0,0,0,0c-8.5-2.5-17.4-4.1-26.8-4.7c-27.3-1.8-54.7-1.7-82-2.5
	c-7.1-0.2-14.3-0.6-21.4-0.9c-0.1-0.9-0.3-1.9-0.4-2.8c9.9-3.7,19.7-7.4,29.6-11.1c-0.1,0.1-0.1,0.2-0.2,0.2
	c23.4-4,46.8-7.7,70.6-7.9l0,0c2,0,3.9,0,5.9,0c0.2,0,0.3,0,0.5,0c2,0,4.1,0.1,6.1,0.2c-8.1-7.7-15.8-16.2-24.7-23.2
	c-19-14.8-38.2-29.6-58.2-42.9c-12.4-8.2-27.1-10.7-42.2-8.9c-0.7,0.1-1.4,0.2-2.1,0.3c-0.2,0-0.4,0.1-0.6,0.1
	c-0.5,0.1-1,0.2-1.5,0.3c-0.2,0-0.4,0.1-0.6,0.1c-0.5,0.1-1,0.2-1.5,0.3c-0.2,0-0.3,0.1-0.5,0.1c-0.6,0.2-1.2,0.3-1.8,0.5
	c0,0-0.1,0-0.1,0c-1.3,0.4-2.6,0.9-3.8,1.4c0,0,0,0,0,0c-0.6,0.3-1.2,0.5-1.7,0.8c0,0-0.1,0-0.1,0.1c-0.6,0.3-1.1,0.6-1.7,0.9
	c0,0,0,0,0,0h0c-10.4,6-16.2,16.6-16.2,30.8c0,20.8,7.6,39.3,16.6,57.5c4.8-6.1,9.2-11.6,13.6-17.2c-0.7,4.8-3.8,7.8-5.3,11.4
	c-1.9,4.7-5.1,11.1-3.4,14.7c7,14.8,15.7,28.9,23.6,43.1c5.9-6.8,11-12.5,16-18.3c0.6,0.5,1.2,1.1,1.8,1.6
	c-16.5,19.2-16.6,19.9-5.1,32.4c5.7-7.3,11.6-14.7,17.5-22.2c0.7,0.6,1.4,1.2,2.1,1.7c-3.2,3.9-6.7,7.6-9.5,11.8
	c-7.9,11.6-8.2,13.6,1.2,23.9c23.8,26.2,47.5,52.4,72.2,77.6c15.5,15.8,32.7,29.8,48.4,43.9c5.7-10.8,23-20.3,31.5-17.7
	c-25.1,12.7-28.8,15.9-29.3,25.5c3.9-3.8,8.3-8,12.7-12.2c0.5,0.6,1.1,1.2,1.6,1.8c-2.7,3-6,5.6-7.8,9c-1.3,2.6-2,7.2-0.5,9.1
	c5.3,6.9,11.6,13.1,15,16.9C643.8,764.1,655.4,760,667,755.9z M880.5,836.2c-1.2,0.5-2.6,1.4-3.5,1c-27.2-10-55-12.7-83.5-7.9
	c-1.1,0.2-2.2-0.1-3.3-1.2C821.2,819.2,851.3,822.3,880.5,836.2z M761,713.6c-0.1,0.6-0.2,1.3-0.2,1.9c-13.1,0-26.3,0-39.4,0
	c0-0.6,0-1.3,0-1.9C734.6,713.6,747.8,713.6,761,713.6z M495.8,516.4c-2.2,2.6-3.2,3.8-4.1,4.9c-12.5,3.5-25,7.1-36.8,10.4
	C464.6,520.6,480,520.7,495.8,516.4z M520.7,634.6c15.5-6.9,31.1-13.9,46.6-20.8c0.4,0.9,0.8,1.8,1.2,2.7c-15.5,7-30.9,14-46.4,21
	C521.6,636.5,521.1,635.6,520.7,634.6z M708.9,661.4c-21.4-2.8-42.4-5.5-63.3-8.3C667.4,650.7,688.8,651.5,708.9,661.4z
	 M661.7,733.8c-10.7,6.2-21.4,12.3-33.6,19.3C637.1,740.5,649.4,737.2,661.7,733.8z M1239.3,409.2c3.8,20.4,22.6,35.4,13.1,57.3
	C1232.5,447.7,1229.1,433.9,1239.3,409.2z M1284.9,393.1c-4.2-11.1-6.2-21.6-2.8-31.4c0,0,0,0,0,0c0.2-0.5,0.4-1,0.6-1.5
	c0.1-0.2,0.1-0.3,0.2-0.5c0.2-0.4,0.3-0.7,0.5-1.1c0.1-0.2,0.2-0.3,0.3-0.5c0.2-0.4,0.4-0.7,0.6-1.1c0.1-0.2,0.2-0.3,0.3-0.5
	c0.6-1,1.2-2,1.9-2.9c0.1-0.1,0.2-0.3,0.3-0.4c0.3-0.3,0.5-0.7,0.8-1c0.1-0.2,0.3-0.3,0.4-0.5c0.3-0.3,0.6-0.7,0.9-1
	c0.1-0.1,0.3-0.3,0.4-0.4c0.4-0.5,0.9-0.9,1.4-1.4c0.2,1,0.5,2,0.7,2.9C1295.5,371.1,1293.9,382.2,1284.9,393.1z M1305.8,384
	c0,0,0.1,0,0.1,0c1.3-0.5,2.7-1.1,4.1-1.6c-0.3,0.9-0.6,1.8-0.9,2.7c-0.1,0.2-0.2,0.4-0.2,0.6c-0.3,0.7-0.5,1.3-0.8,2
	c-0.1,0.2-0.2,0.3-0.2,0.5c-0.3,0.6-0.6,1.3-0.9,1.9c-0.1,0.1-0.1,0.2-0.2,0.4c-0.4,0.6-0.7,1.3-1.1,1.9c0,0.1-0.1,0.1-0.1,0.2
	c-0.4,0.6-0.8,1.3-1.3,1.9c0,0-0.1,0.1-0.1,0.1c-0.5,0.6-1,1.2-1.5,1.8c0,0,0,0,0,0c-5.1,5.7-12.1,9.3-21.1,11.5
	C1285.9,395.1,1294.7,388.6,1305.8,384z M1270.3,418.4c-9.2-18.9-12.2-37.1,4.1-55.9C1274.6,382.4,1285.1,401.1,1270.3,418.4z
	 M1260,445.9c-15.5-24.9-17.1-38-6.3-56.2C1258.3,408.6,1272.9,425.6,1260,445.9z M1296.9,406.4c0.8-0.4,1.7-0.9,2.5-1.4
	c0,0,0,0,0,0c0.8-0.5,1.6-0.9,2.4-1.4c-0.1,0.6-0.3,1.1-0.4,1.6c0,0.2-0.1,0.3-0.1,0.5c-0.1,0.4-0.2,0.7-0.3,1.1
	c0,0.2-0.1,0.3-0.1,0.5c-0.1,0.3-0.2,0.7-0.3,1c0,0.2-0.1,0.3-0.2,0.5c-0.1,0.3-0.2,0.7-0.3,1c0,0.1-0.1,0.3-0.1,0.4
	c-0.1,0.3-0.2,0.7-0.4,1c0,0.1-0.1,0.2-0.1,0.3c-0.1,0.4-0.3,0.8-0.5,1.2c0,0,0,0.1,0,0.1c-0.5,1.3-1.1,2.5-1.8,3.6
	c0,0-0.1,0.1-0.1,0.1c-0.2,0.3-0.4,0.6-0.6,1c0,0.1-0.1,0.1-0.1,0.2c-0.2,0.3-0.4,0.6-0.6,0.9c0,0-0.1,0.1-0.1,0.1
	c-0.2,0.3-0.5,0.6-0.7,0.9c0,0,0,0-0.1,0.1c-1.1,1.3-2.4,2.6-4,3.7v0c-4.6,3.6-11.4,6.8-21.7,11
	C1271.8,417.1,1285,412.7,1296.9,406.4z M1283.4,455.7c0.5-0.4,1.1-0.9,1.6-1.3c-0.1,0.7-0.2,1.4-0.3,2c0,0.2-0.1,0.4-0.1,0.6
	c-0.1,0.5-0.2,0.9-0.2,1.4c0,0.2-0.1,0.5-0.1,0.7c-0.1,0.4-0.2,0.8-0.3,1.2c-0.1,0.2-0.1,0.5-0.2,0.7c-0.1,0.4-0.2,0.8-0.3,1.2
	c-0.1,0.2-0.1,0.5-0.2,0.7c-0.1,0.4-0.2,0.8-0.3,1.2c-0.1,0.2-0.1,0.4-0.2,0.6c-0.1,0.4-0.3,0.8-0.4,1.2c-0.1,0.2-0.1,0.4-0.2,0.6
	c-0.1,0.4-0.3,0.8-0.5,1.2c-0.1,0.2-0.1,0.3-0.2,0.5c-0.2,0.4-0.4,0.9-0.5,1.3c0,0.1-0.1,0.2-0.1,0.3c-0.2,0.5-0.4,1-0.7,1.4
	c0,0,0,0.1-0.1,0.1c-1.9,3.7-4.2,7-6.9,9.9c0,0,0,0,0,0c-5.2,5.5-11.9,9.6-19.7,12.8c-3.2-20.3,11.2-26,24.2-34.2
	c1.2-0.8,2.4-1.6,3.6-2.4c0.1-0.1,0.3-0.2,0.4-0.3c0.4-0.3,0.9-0.6,1.3-1C1283.1,455.9,1283.3,455.8,1283.4,455.7z M1292.7,427.6
	c0.8-0.5,1.6-1,2.4-1.5c-0.1,0.8-0.2,1.5-0.4,2.2c0,0.2-0.1,0.5-0.1,0.7c-0.1,0.5-0.2,1-0.3,1.4c-0.1,0.3-0.1,0.5-0.2,0.8
	c-0.1,0.4-0.2,0.9-0.3,1.3c-0.1,0.3-0.2,0.5-0.2,0.8c-0.1,0.4-0.2,0.8-0.4,1.2c-0.1,0.3-0.2,0.5-0.3,0.8c-0.1,0.4-0.3,0.8-0.4,1.2
	c-0.1,0.2-0.2,0.5-0.3,0.7c-0.2,0.4-0.3,0.8-0.5,1.2c-0.1,0.2-0.2,0.4-0.2,0.6c-0.2,0.5-0.5,1-0.7,1.5c0,0.1-0.1,0.1-0.1,0.2
	c-0.3,0.6-0.6,1.1-0.9,1.7c0,0.1-0.1,0.1-0.1,0.2c-0.3,0.5-0.6,1-0.9,1.4c-0.1,0.1-0.2,0.3-0.3,0.4c-0.3,0.4-0.5,0.8-0.8,1.2
	c-0.1,0.1-0.2,0.3-0.3,0.4c-0.3,0.4-0.5,0.7-0.8,1.1c-0.1,0.1-0.2,0.3-0.3,0.4c-0.3,0.3-0.6,0.7-0.9,1c-0.1,0.1-0.2,0.2-0.3,0.4
	c-0.3,0.4-0.6,0.7-1,1.1c-0.1,0.1-0.2,0.2-0.3,0.3c-0.4,0.4-0.8,0.8-1.2,1.2c0,0,0,0,0,0c-6.5,6.2-14.9,10.4-23.9,13.9
	c0-13.4,3.4-18.1,29.8-35c0,0,0,0,0,0c0.8-0.5,1.7-1.1,2.6-1.7c0.2-0.1,0.4-0.3,0.6-0.4C1292,428.1,1292.3,427.9,1292.7,427.6z
	 M1308.6,365.7c0.7-0.2,1.4-0.4,2.1-0.6c0,0,0.1,0,0.1,0c0.7-0.2,1.4-0.3,2.2-0.5c0,0,0,0,0.1,0c0.7-0.2,1.5-0.3,2.3-0.5
	c-1.2,1.6-2.5,3.1-3.7,4.7c-4.5,5.6-9.1,11.5-14.4,18.2c-2.3-9.3-0.3-14.5,4-17.7c0,0,0,0,0,0c0.5-0.4,1-0.7,1.6-1.1c0,0,0,0,0.1,0
	c0.6-0.3,1.1-0.6,1.7-0.9c0,0,0,0,0.1,0c0.6-0.3,1.2-0.5,1.9-0.8c0,0,0.1,0,0.1,0C1307.2,366.1,1307.9,365.9,1308.6,365.7
	C1308.6,365.7,1308.6,365.7,1308.6,365.7z M878.8,625.2c21.6-28.6,50.3-48.5,81.9-64.4c9.5-4.8,19.1-9.1,28.8-12.9
	c0.2-0.1,0.4-0.2,0.6-0.2c1-0.4,2.1-0.8,3.1-1.2c0.4-0.1,0.7-0.3,1.1-0.4c1-0.4,2-0.7,2.9-1.1c0.4-0.1,0.8-0.3,1.2-0.4
	c0.9-0.3,1.9-0.7,2.9-1c0.4-0.2,0.9-0.3,1.3-0.5c0.9-0.3,1.9-0.6,2.8-1c0.4-0.1,0.9-0.3,1.3-0.4c0.9-0.3,1.9-0.6,2.8-0.9
	c0.4-0.1,0.8-0.3,1.3-0.4c1-0.3,1.9-0.6,2.9-0.9c0.3-0.1,0.7-0.2,1-0.3c3.5-1,7-2,10.5-2.9c0.3-0.1,0.5-0.1,0.8-0.2
	c0.9-0.2,1.8-0.4,2.7-0.7c0.5-0.1,1-0.3,1.6-0.4c0.8-0.2,1.7-0.4,2.5-0.6c0.6-0.1,1.2-0.3,1.8-0.4c0.8-0.2,1.6-0.3,2.4-0.5
	c0.6-0.1,1.3-0.3,1.9-0.4c0.8-0.2,1.6-0.3,2.4-0.5c0.7-0.1,1.3-0.3,2-0.4c0.8-0.1,1.6-0.3,2.3-0.4c0.7-0.1,1.4-0.2,2.1-0.4
	c0.8-0.1,1.5-0.3,2.3-0.4c0.7-0.1,1.4-0.2,2.2-0.3c0.7-0.1,1.5-0.2,2.2-0.3c0.8-0.1,1.5-0.2,2.3-0.3c0.7-0.1,1.4-0.2,2.1-0.3
	c1.1-0.1,2.1-0.3,3.2-0.4c0.8-0.1,1.7-0.2,2.5-0.3c1-0.1,2-0.2,3.1-0.3c0.6-0.1,1.2-0.1,1.9-0.2c0.9-0.1,1.7-0.1,2.6-0.2
	c0.7,0,1.3-0.1,2-0.1c0.8-0.1,1.7-0.1,2.5-0.2c0.7,0,1.3-0.1,2-0.1c0.8,0,1.7-0.1,2.5-0.1c0.7,0,1.3,0,2-0.1c0.9,0,1.7,0,2.6-0.1
	c0.7,0,1.3,0,2,0c0.9,0,1.8,0,2.6,0c0.6,0,1.3,0,1.9,0c0.9,0,1.8,0,2.8,0c0.6,0,1.2,0,1.8,0c1,0,2,0.1,3.1,0.1c0.5,0,1,0,1.5,0.1
	c1.5,0.1,3.1,0.1,4.6,0.2c1.7,0.1,3.4,0.2,5,0.4c1.6,0.1,3.2,0.3,4.8,0.5c0,0,0,0,0,0c26.8,3.2,51.4,12.8,74.5,26.8
	c25.5,15.4,48.6,34,66.9,57.8c16.5,21.5,25,45.5,19.3,73.2c-2.6,12.4-9.4,20.6-21,25c-6.2,2.4-12.5,4.5-18.9,6.6
	c-12,4.1-17.5,12.4-18,25.1c-1.2,35.5,2.9,70.6,8.7,105.5c1.7,10.4,7.4,22,4.4,30.6c-2.9,8.3-14.7,13.5-22.5,20.1
	c-13.1,11.1-23.6,24.1-28.8,40.8c-3.7,11.9-5.7,13.2-18.5,10c-21.7-5.3-42.9-3.3-63.8,4.2c-15.2,5.4-30.5,10.6-44.8,15.5
	c-9.5-10.4-17-19.5-25.5-27.5c-5-4.7-11.3-9.5-17.7-10.9c-17.4-3.7-28.9-14.6-40.4-27c-15-16.2-34.5-25.9-56.3-30.4
	c-2.7-0.6-5.4-1.4-7.7-2c3.4-22.7,7.7-44.5,9.7-66.6c2.1-23.4,2.3-47,2.5-70.6c0.1-11.9-4.5-16.6-14.4-17.8
	c-24.4-3-37.5-16.4-40.7-41.1C860.4,657.1,867.4,640.4,878.8,625.2z M1296.6,365.4c-1.4-7.2,0.5-12.6,4.1-17.1v0c0,0,0,0,0,0
	c0.3-0.3,0.6-0.7,0.9-1c0,0,0.1-0.1,0.1-0.1c1.2-1.3,2.5-2.5,3.9-3.7c0.2-0.1,0.3-0.3,0.5-0.4c0.2-0.2,0.5-0.4,0.7-0.6
	c0.3-0.2,0.5-0.4,0.8-0.6c0.2-0.1,0.4-0.3,0.6-0.4c0.5-0.4,0.9-0.7,1.4-1c0.2,0.8,0.3,1.6,0.4,2.4c0,0.3,0.1,0.5,0.1,0.8
	c0.1,0.5,0.1,1,0.2,1.4c0,0.3,0.1,0.6,0.1,1c0,0.4,0.1,0.8,0.1,1.1c0,0.3,0,0.7,0,1c0,0.3,0,0.6,0,1c0,0.3,0,0.7-0.1,1
	c0,0.3,0,0.5-0.1,0.8c0,0.4-0.1,0.7-0.1,1c0,0.2-0.1,0.4-0.1,0.7c-0.1,0.4-0.2,0.7-0.2,1.1c0,0.2-0.1,0.3-0.2,0.5
	c-0.1,0.4-0.2,0.7-0.4,1.1c0,0.1-0.1,0.2-0.1,0.2c-1.2,2.8-3.1,5-6,6.8c0,0,0,0-0.1,0c-0.5,0.3-1,0.6-1.5,0.9c0,0,0,0-0.1,0
	C1300.2,364,1298.5,364.7,1296.6,365.4z M1344,500.6c-9.1-25.2-13.7-50.1,5.9-71.7c1.5,8.3,2.4,17.4,4.8,26
	C1359.2,471.8,1355.9,487.1,1344,500.6z M1149.9,529c0.7,0.2,1.5,0.5,2.2,0.7c29.6,9.4,55.8,25.1,79.9,44.5
	c24.6,19.9,46.6,42.4,54.4,74.2c4.1,16.8,4.6,34.5,7.1,51.8c0.7,5.1,2.7,10.1,4.1,15.2c1.2-0.2,2.4-0.5,3.7-0.7
	c22.3-33.1,10.4-66.9,1.4-100.7c13.4,33.3,25.5,66.7,2.9,101.7c22.8,5.7,44.9,6.3,66.7-0.4c4.2-1.3,8.1-5.4,10.6-9.2
	c3.8-5.8,6.3-12.6,9.4-18.9c0.9,0.4,1.9,0.8,2.8,1.2c-2.4,6.6-4.8,13.2-7.1,19.7c7-2.9,13.1-6.4,17.8-11.2c5-5.2,9.3-11.4,12.7-17.7
	c1.5-2.9,2.6-6.1,3.6-9.4c0,0,0,0,0,0c0.7-2.2,1.3-4.6,2-6.9c0-0.1,0.1-0.2,0.1-0.3c0.3-0.9,0.5-1.7,0.8-2.6c0.2,0.8,0.3,1.4,0.5,2
	c0.2,1,0.4,1.8,0.7,3.1c0.3-6.4,0.3-12.7-0.1-18.8c-0.1-2-0.3-4-0.6-6c-0.2-2-0.5-4-0.9-5.9s-0.7-3.9-1.1-5.8
	c-0.2-1-0.4-1.9-0.7-2.9c-0.5-1.9-1-3.8-1.5-5.7c-1.7-5.6-3.7-11.1-6.2-16.4c-0.8-1.8-1.7-3.5-2.6-5.3c-4.1-7.8-9.2-15.3-15.2-22.4
	c-0.8-0.9-1.5-1.8-2.3-2.6c-0.3-0.3-0.6-0.6-0.8-0.9c-0.5-0.5-1-1.1-1.5-1.6c-0.3-0.4-0.7-0.7-1-1.1c-0.4-0.5-0.9-0.9-1.3-1.4
	c-0.4-0.4-0.8-0.8-1.2-1.1c-0.4-0.4-0.8-0.8-1.2-1.2c-0.4-0.4-0.8-0.8-1.3-1.2c-0.4-0.3-0.8-0.7-1.1-1c-0.5-0.4-0.9-0.8-1.4-1.2
	c-0.3-0.3-0.7-0.6-1-0.9c-0.5-0.4-1-0.8-1.5-1.3c-0.3-0.3-0.6-0.5-0.9-0.8c-0.5-0.4-1.1-0.9-1.6-1.3c-0.2-0.2-0.5-0.4-0.7-0.6
	c-0.6-0.5-1.2-0.9-1.9-1.4c-0.1-0.1-0.3-0.2-0.4-0.3c-5.7-4.1-11.6-7.7-17.8-10.7c0,0,0,0,0,0c-5.3-2.5-10.8-4.7-16.5-6.4l0,0
	c-12.7-3.9-26.3-5.8-40.6-6.2c-8.9-0.2-17.8-0.5-26.8-0.9c-3.1-0.1-6.1-0.2-9.2-0.4c-17-0.7-33.9-1.6-50.9-2.5
	c-8.4-0.4-16.7-0.9-25.1-1.4c-9.4-0.5-18.8-1.1-28.2-1.7c-6.3-0.4-12.6-0.8-18.8-1.1c-0.1,0.5-0.2,1-0.3,1.5
	c1.1,0.5,2.1,1.1,3.2,1.4C1146.7,528.1,1148.3,528.6,1149.9,529z M1397.7,664.8c-1.6-14.2-3.1-28.3-4.9-44.4
	C1401,635.5,1401.3,649.9,1397.7,664.8z M1342.9,714c15.5-22.4,16.3-45.6,15.9-69.2C1368.1,662.8,1360.5,705.1,1342.9,714z
	 M1358.3,628.8c-11.9-26.8-26.6-51.5-49-71.1C1334.3,575.4,1350.1,599.5,1358.3,628.8z M1293.3,589.7
	c-20.3-17.7-39.3-34.2-56.4-49.1C1258.7,550.3,1276.7,567.7,1293.3,589.7z M1363.8,465.7c-11.3-19.9-11-38.6,0.6-57.4c0,0,0,0,0,0
	c0,0,0,0,0,0c0.5-0.9,1.1-1.7,1.7-2.6c0.1-0.1,0.2-0.2,0.2-0.3c0.5-0.7,1-1.4,1.5-2.1c0.2-0.2,0.3-0.5,0.5-0.7
	c0.5-0.6,0.9-1.2,1.4-1.8c0.2-0.2,0.4-0.5,0.5-0.7c0.6-0.8,1.3-1.6,2-2.4c0,0.3,0,0.5,0,0.8C1371.2,422.5,1381.7,445.8,1363.8,465.7
	z M1274.2,740.4c-2.5,3.2-4.9,6.4-7.4,9.5c11.9,11-4.7,18.4-4.5,28.5c-1.9-5.1-2.8-10.9-6-15c-2.7-3.4-8-4.8-14.6-8.4
	c0,9.6-0.1,15.6,0,21.5c0.2,5-2.3,7.6-6.8,6.3c-2.5-0.7-5.9-3.9-6-6.1c-0.6-11.7-0.7-23.5-0.2-35.2c0.3-8.3,3.5-11.2,13.8-13.6
	c-1.4,7.9-2.7,15.1-3.6,20.1c10.6-3.3,22.2-6.9,33.8-10.4C1273.2,738.5,1273.7,739.4,1274.2,740.4z M1259.4,736.2
	c3-9.5,4.9-10.3,19-7.8C1276.1,734.7,1272.8,736.1,1259.4,736.2z M1318.1,525c-6.5-0.6-12.3-1.2-20.7-2c3.9-11.3,7.4-21.4,11.7-33.9
	C1312.5,502.8,1315.2,513.5,1318.1,525z M1322.9,523c-9-22.2-9.7-43.7,6.3-64.2c2.5,12.3,6.2,24,6.9,35.9c0.5,9.4-2.5,19-4.5,28.4
	c-0.3,1.4-3.1,2.9-4.9,3.1C1325.6,526.4,1323.5,524.4,1322.9,523z M1220,468.9c20.6,29.2,23.9,37.1,21.3,51.2
	C1222.2,518.9,1212.6,495.4,1220,468.9z M1226.2,519.3c-5.5-0.3-9.7-0.5-14.2-0.7c0-6.5,0-12.4,0-20.9
	C1217.4,505.9,1221.4,512,1226.2,519.3z M1245.9,499.1c-21.4-25.3-24.7-37.4-17-59.1c4,6.6,8.3,13.6,12.6,20.7
	C1248.9,472.6,1252.8,485.1,1245.9,499.1z M1482.9,1013c-4,5.5-8.2,9.8-16.3,9.7c-5.8-0.1-12.7,1.6-17.2,5
	c-10.1,7.9-20.7,12.2-33.5,10.4c-11.6-1.6-21.8,1.2-31.2,8.5c-10.3,8-21.9,9.2-34.2,3.6c-9.9-4.5-20.1-6.7-31.5-5.1
	c-11.4,1.6-23.2,0.7-34.9,0.8c-6,0-9,3-9.9,11.3c21.2,3.2,41.9,6.3,62.6,9.5c-0.2,1.1-0.4,2.1-0.6,3.2c-20.5-3-41-6.1-62.3-9.2
	c-0.6,3.5-1.5,8.7-2.8,16.2c22.1,2.6,43.4,5.7,64.8,7.4c41.9,3.4,81.9-3.8,118.8-24.7c19-10.8,33.3-25.9,42.7-46.1c0,0,0,0,0,0
	c0,0,0,0,0,0c0.4-0.9,0.8-1.8,1.2-2.7c0.5-1.1,0.9-2.2,1.4-3.3c-0.4-0.1-0.8-0.2-1.2-0.3c0,0,0,0,0,0
	C1488.8,1004.9,1488.5,1005.2,1482.9,1013z M1398.5,1065.6c16.4-5.7,30.3-10.4,46.8-16.1C1430.4,1059.9,1416.8,1065.7,1398.5,1065.6
	z M937.8,1023c-20.5,2.1-36.7,19.2-39,39.7c-3.3-20.9,8.8-42.4,29.2-51.7c17.6-8,43.9-10.1,63.2-5c-4.6,10.3-8.9,20.8-13.9,30.9
	c-0.8,1.7-5,3.5-6.5,2.9c-24.8-11.1-44.4-1.3-62.6,14.8c-1.2,1-2.4,2.1-4.5,3.8C907.4,1039,921.3,1030.6,937.8,1023z M871.8,1045.5
	c-3.8-23.8,1-44.9,18.3-62.4c10.1-10.2,19.7-20.9,30.2-30.6c14.5-13.4,32.3-20.4,51.9-21.8c32.5-2.3,55.5,12.5,70.8,40.1
	c-11.8,6.8-23.1,13.5-34.8,19.8c-1.7,0.9-4.8-0.3-7.1-0.8c-11.1-2.4-22.1-4.1-33.3-0.1c11.2,1.2,22.5,2.4,33.7,3.6
	c0,1.2,0.1,2.4,0.1,3.5c-2.9,0.3-5.7,0.7-8.6,0.8c-18.4,0.6-37.2-1-55.1,2.3c-33.3,6.1-51.1,32.9-49,69c-5.6-11.1-5.3-19.7,2.5-57
	c-12,17.2-12,35.7-12.4,54.1c-2.5-27.3-3.1-54.1,17.7-77.6C883.3,996.7,876.9,1012.1,871.8,1045.5z M918.9,1054.7
	c-12,13-24.5,24.7-39.3,34.3c-5.3,3.4-9.1,8.8-6.5,17.5c1.4-2.7,2.3-4.3,3.5-6.6c19.5,12.5,40.4,17.9,63,16.1
	c12.2-1,16.7-4.9,14.4-17.3c-3.7-20.3,0.9-37.8,15.2-53.4C953.4,1036.1,933.6,1038.7,918.9,1054.7z M945.7,1112.2
	c-0.8-9.1-1.5-17-2.2-25.7C950.6,1095.4,951.3,1104.6,945.7,1112.2z M1039.3,1175c14.6-1.7,32.9-4,49-5.9
	C1079.1,1174.7,1054.4,1177.6,1039.3,1175z M1005.1,1113c-4.6,8.2-9.8,16.1-14.8,24.1c-0.9-0.3-1.8-0.6-2.7-0.8
	c-0.8-4.5-1.7-9-2.5-13.6c-1,0.1-1.9,0.2-2.9,0.2c0.7,6.8,1.4,13.5,2.2,20.6c-5.1-1-8.8-1.6-12.9-2.4c-4.6-16,11.1-35.9,28.9-35.7
	C1005.7,1105.5,1007.6,1108.7,1005.1,1113z M775.5,899.1c-44.1-1.9-78.6,17.3-105.8,50.9c-9,11.1-17,23-25.1,34.9
	c-9,13.3-12,28.1-11.2,44.6c10-12.2,18.6-24.4,29-34.9c20.8-20.9,44.5-34.9,72-38.2c0,0,0,0,0,0c0,0,0,0,0,0c0,0,0,0,0,0
	c9.4-1.1,19.2-1,29.4,0.6c21.1,3.2,37.4,15,48.9,32.8c5.7,8.8,10.2,18.3,15.3,27.5c1.1-0.4,2.1-0.9,3.2-1.3
	c1-16.1-11.9-27.2-17.8-40.9c1-0.5,2-1.1,2.9-1.6c7.5,13.8,15.1,27.6,22.6,41.4c0-8.8,0-17.5,0-26.6c7.4,8.8,7.9,23.3,1.2,31.4
	c1,1.5,1.9,3,3.6,5.6c1.3-3.5,2.6-5.7,3-8c4-23,3-45.6-5.4-67.6C829.9,919.3,809,900.6,775.5,899.1z M639.2,1015.5
	c1.8-18.2,28.3-45.5,51.2-52.6C669.4,978.3,649.7,992.5,639.2,1015.5z M710.8,953.9c21.3-17.5,80.5-15.8,95.3,10.2
	C775,939,743.1,943.6,710.8,953.9z M802.6,946c9.3,3.4,22.7,20.2,26.7,35.7C819.9,969.1,810.6,956.7,802.6,946z M1369.4,931.5
	c15.7,3.1,25.2,10.2,26.3,17.5c-8.1-3.3-16.7-6.9-25.4-10.4c-0.4,0.9-0.9,1.8-1.3,2.6c7.6,3.7,15.3,7.4,22.9,11
	c-0.4,1.5-0.7,3-1.1,4.5c-4.7-0.2-9.9,0.7-14.2-0.8c-20.3-7.5-40.5-7.3-60.5,0.4c-11.3,4.3-18,2.7-27-8.5
	C1312.9,926.8,1340.6,925.9,1369.4,931.5z M830.1,1077.9c-9.1-8-18.9-15.2-27.6-23.5c-10.3-9.7-18.9-22.7-36.5-14.6
	c3.9-1.7,7.9-3.4,11.8-5.2c-0.1-0.8-0.2-1.7-0.3-2.5c-7,0.7-14.6-0.3-20.7,2.4c-29.3,12.7-46.2,36-53.1,66.7
	c-2.3,10.3,2.6,18,10.2,20.8c-0.6-9.1-1.2-18.8-1.8-28.5c0.9-0.1,1.7-0.1,2.6-0.2c-1.7,24.8,6,37,21.7,34.6
	c-4.1-9.7-4.8-19.1,0.9-27.9c0,6.2-1,12.6,0.4,18.6c1,4.2,5.1,10.6,8.1,10.8c30,1.6,60.5,6.3,89.2-7.8c-3.5,0-7.1,0-10.6,0
	c-0.2-1.1-0.4-2.3-0.7-3.4c6.5-3.2,12.9-6.4,22.1-11c-0.2,0.5-0.4,1-0.6,1.5c-0.1,0.2-0.1,0.3-0.2,0.5c-0.1,0.4-0.3,0.7-0.4,1.1
	c0,0.1-0.1,0.3-0.1,0.4c-0.1,0.2-0.2,0.5-0.3,0.7c-0.5,1.3-0.9,2.4-1.3,3.4c0,0,0,0,0,0.1c-0.1,0.2-0.2,0.5-0.3,0.7
	c0,0.1,0,0.1-0.1,0.2c-0.1,0.2-0.2,0.4-0.3,0.7c-0.1,0.3-0.2,0.5-0.3,0.8c8.4-10.2,8.5-16.8,0.1-26.9
	C838.5,1085.7,834.4,1081.6,830.1,1077.9z M726.1,1113.2c-3.5-12.5,0.2-24.3,8.3-33.8C731.8,1090.2,728.8,1102.1,726.1,1113.2z
	 M976.9,923.4c-15.4-20.6-34.4-35.2-58.7-42.4c-23.9-7-48.4-8-72.9-5.4c-18.2,1.9-36.3,4.9-52.7,13.1c8.5,3,16.7,5.8,24.8,8.7
	c-0.2,0.5-0.3,1-0.5,1.6c-8.9-2.1-17.8-4.1-26.6-6.2c58.2,20.3,68.6,67,68.4,122.4c6.4-34.2-3.6-62.7-15.9-90.9
	c15.2,27.7,28.7,55.7,19.4,86.3C887.4,967.3,919.6,930.3,976.9,923.4z M946,923.6c-31,7.6-51,25.5-66.7,52.5
	C882.5,952.3,923.9,920,946,923.6z M1138.4,1090.3c-8.7-36.7-28.8-63.5-64.8-78c-39.1-15.8-102.5,24.5-111.1,58.1
	c-3.5,13.7-2,26.7,3.5,39.9c4.9-3.9,9.4-7,13.1-10.8c3.8-3.9,6.8-8.6,11.1-14.1c-0.8,3.2-1.3,5.3-2,8.3c5-4.8,9.1-8.8,13.2-12.8
	c0.4,0.5,0.9,1,1.3,1.5c-1,1.3-2,2.6-3,3.9c0.3,0.3,0.5,0.6,0.8,0.9c4.5-2.6,9-5.1,13.5-7.7c-0.2-0.5-0.4-1-0.5-1.5
	c-4.6,0.4-9.2,0.7-13.8,1.1c-0.2-1-0.4-1.9-0.6-2.9c6-0.7,12.6-3.3,17.9-1.8c9.6,2.7,19.2,6.8,27.6,12.3
	c13.6,8.7,23.5,21.4,24.7,37.9c1.2,15.3-0.8,30.6-16.2,39.9c17.9-6.8,18.3-23.3,20.9-38.5c0.9,0.2,1.8,0.4,2.6,0.7
	c-1.7,9.7-3.3,19.5-5,29.6c10.6,3.6,21.8,3.4,31.8-2.4c10.9-6.3,25.6-8.8,29.3-24.6c0.3,2.5,0.7,5.1,1.3,9.6
	C1140.4,1121.7,1142.2,1106.2,1138.4,1090.3z M1000.5,1070.7c12-5.1,22.8-5.7,33.4,0C1023.3,1070.7,1012.5,1070.7,1000.5,1070.7z
	 M1048.6,1013.7c22.6,1.5,43.8,6.3,58.3,26C1091.5,1022,1069.8,1018.5,1048.6,1013.7z M1128.1,1074.7c6.9,13.6,11.5,27.8,7.6,43.9
	C1133.1,1103.5,1130.6,1089.1,1128.1,1074.7z M1157.1,981.5c-47.2-26.6-118.6-15.3-154.8,25.2c-5.1,5.7-8.9,12.6-13.4,19
	c6.4-2.1,11.3-5.5,16.3-8.5c34.4-20.4,72.6-18.9,101.8,5c25.1,20.6,38.4,47.9,41.6,80c0.7,6.6,2.1,13.8,0.2,19.8
	c-4,12.9-9.8,25.3-14.9,37.6c3.6-0.5,8.8-1.2,14.1-2c-3.7-0.3-7.4-0.5-12.5-0.9c27.5-30,18-62.9,9.4-95.6
	c7.9,6.5,10.8,19.6,13.4,60.8c16.1,7.7,24.9,4.8,44.5-16.4c-0.6,5.1-1,8.2-1.4,11.4c2.2-9.2,5.5-18.4,6.4-27.8
	C1211.6,1050.8,1199.3,1005.3,1157.1,981.5z M1023.8,1004.4c26.2-14.6,66.7-9.6,83.4,10.3C1081.2,996.8,1053.2,994.8,1023.8,1004.4z
	 M1239.4,973.2c19.3,19.5,31.1,65.7,24.4,90.5c-2.8,0.7-4.3,1.1-5.6,1.4c-1.2-9.8-2.5-20.4-3.8-31.1c-0.6,0.1-1.1,0.2-1.7,0.3
	c0,8,0,16,0,24.1c-1.8-47.4-29.5-78.3-70.1-101.1C1198.5,951,1224.7,958.3,1239.4,973.2z M1155.5,1164.1
	C1155.5,1164.1,1155.5,1164.1,1155.5,1164.1c-2.4,1.1-4.9,2.1-7.5,3.1C1150.6,1166.2,1153.1,1165.2,1155.5,1164.1z M1276.1,786.8
	c0.1-0.1,0.2-0.1,0.2-0.2c0,0.1,0,0.2,0.1,0.4l0,0c0,0.5-0.1,1-0.1,1.5C1276.2,787.9,1276.1,787.4,1276.1,786.8c0,0,0.1,0,0.1,0.1
	C1276.2,786.8,1276.1,786.8,1276.1,786.8z M1279.2,480.8c0.6-0.6,1.2-1.2,1.7-1.9c-0.1,0.8-0.2,1.6-0.3,2.4c0,0.3-0.1,0.5-0.1,0.8
	c-0.1,0.5-0.2,1-0.2,1.5c-0.1,0.3-0.1,0.7-0.2,1c-0.1,0.4-0.2,0.9-0.2,1.3c-0.1,0.4-0.1,0.7-0.2,1.1c-0.1,0.4-0.2,0.8-0.3,1.1
	c-0.1,0.4-0.2,0.7-0.3,1.1c-0.1,0.3-0.2,0.7-0.3,1c-0.1,0.4-0.2,0.8-0.3,1.1c-0.1,0.3-0.2,0.6-0.3,0.9c-0.1,0.4-0.2,0.8-0.4,1.2
	c-0.1,0.2-0.1,0.5-0.2,0.7c-0.1,0.4-0.3,0.9-0.4,1.3c0,0.1-0.1,0.2-0.1,0.3c-1,2.9-2.2,5.6-3.6,8.1c0,0,0,0.1-0.1,0.1
	c-0.3,0.5-0.5,0.9-0.8,1.4c0,0,0,0.1-0.1,0.1c-0.3,0.5-0.6,0.9-0.8,1.3c0,0,0,0.1-0.1,0.1c-6.3,9.5-15.2,14.3-25.5,12.9
	c0.3-18.4,14.6-24.3,26.5-33.3v0c0.7-0.6,1.5-1.1,2.2-1.7c0,0,0,0,0.1-0.1c0.7-0.5,1.3-1.1,1.9-1.7c0.1,0,0.1-0.1,0.2-0.1
	c0.6-0.6,1.2-1.1,1.8-1.7C1279,481.1,1279.1,480.9,1279.2,480.8z M960,113.8c-466.6,0-846.2,379.6-846.2,846.2
	s379.6,846.2,846.2,846.2s846.2-379.6,846.2-846.2S1426.6,113.8,960,113.8z M747,1334.9c-0.3-8.5,3.1-17.1,10-25.8
	c-5.7,1.3-11.6,2.4-17.7,3.5c-5.1,1-11,2.1-17.7,3.3c-6.7,1.2-13.5,2.4-20.4,3.7c-17.2,17-32.6,35.9-46.1,56.8
	c-13.5,20.9-24.5,42.2-32.9,63.8s-14.3,42.5-17.3,62.8c-3.1,20.3-3.1,38.3,0,54.1s9.6,28.5,19.7,38.2c10,9.6,24,14.5,42,14.5
	c8.5,0,16.4-1.2,23.9-3.7c7.4-2.4,14.2-5.6,20.2-9.4c6-3.9,11.2-8.2,15.6-13.1c4.4-4.9,7.7-9.8,10-14.6l9.6,15.4
	c-2.8,4.6-6.7,9.7-11.6,15.2c-4.9,5.5-10.9,10.6-17.9,15.2c-7.1,4.6-15.2,8.5-24.3,11.6c-9.1,3.1-19.1,4.6-29.9,4.6
	c-27.2,0-49.8-4.8-67.6-14.5c-17.9-9.6-31.3-22.5-40.5-38.5c-9.1-16.1-14.1-34.5-14.8-55.3c-0.8-20.8,2.1-42.5,8.7-64.9
	c6.6-22.5,16.6-45,30.3-67.6c13.6-22.6,30.3-43.5,50.1-62.8c-9.8,0-19.4,0.4-28.9,1.2c-9.5,0.8-18.8,2.4-27.7,5
	c-9,2.6-17.9,6.2-26.6,11c-8.7,4.8-17.2,11.1-25.4,19.1c-8,7.5-13.7,15.4-17.3,23.7c-3.6,8.4-5.3,16.4-5,24.1
	c0.3,7.7,2.1,14.6,5.6,20.8c3.5,6.2,8.2,10.8,14.1,13.9l-16.6,8.5c-4.9-0.5-10.3-2.6-16.2-6.2c-5.9-3.6-11.5-8.3-16.8-14.3
	c-5.3-5.9-10-12.7-14.1-20.4c-4.1-7.7-6.9-15.8-8.5-24.3c-1.5-8.5-1.5-17.1,0-26s5.4-17.4,11.6-25.6c10.8-14.8,24.1-24.8,39.9-29.8
	c15.8-5,32.5-7.4,50.1-7.2c17.6,0.3,35.1,1.7,52.6,4.4c17.5,2.7,33.3,4.4,47.4,5.2c12.6-10.7,26.3-20.4,41-29.1
	c14.8-8.7,30.4-16.2,47-22.6c16.6-6.4,34-11.3,52.2-14.8c18.2-3.5,37.2-5.2,57-5.2c14.1,0,25.3,2.1,33.5,6.4
	c8.2,4.2,13.8,9.7,16.8,16.4c3,6.7,3.5,14.3,1.7,22.7c-1.8,8.5-5.6,17-11.4,25.4c-5.8,8.5-13.4,16.6-22.7,24.3
	c-9.4,7.7-20,14.1-31.8,19.3c-17.5,7.5-32.3,11-44.5,10.8c-12.2-0.3-21.6-3-28.1-8.3C750.7,1350.3,747.3,1343.4,747,1334.9z
	 M764,1519.5c-2.3-6.9-3-15.1-2.1-24.5c0.9-9.4,3.7-19.3,8.3-29.9c11-26.2,24.8-45.5,41.2-57.8c16.4-12.3,33.5-18.5,51.3-18.5
	c10,0,17.6,3.6,22.7,10.8c0.8-1.8,1.3-3.4,1.7-4.8c0.4-1.4,0.8-2.4,1.3-2.9h42.4c-0.8,2.3-2.3,6.3-4.6,11.9
	c-2.3,5.7-5,12.1-8.1,19.5c-3.1,7.3-6.3,15-9.6,23.1c-3.3,8.1-6.5,15.7-9.4,22.9c-3,7.2-5.5,13.4-7.7,18.7c-2.2,5.3-3.5,8.7-4,10.2
	c-2.1,4.9-1.8,8.4,0.8,10.4c2.6,2.1,6,2.7,10.4,1.9c4.4-0.8,9.2-3.1,14.5-6.9c5.3-3.9,9.6-9.2,12.9-16.2l6.6,10.8
	c-2.6,6.2-6.1,11.9-10.6,17.1c-4.5,5.3-9.5,9.8-15,13.7c-5.5,3.9-11.4,6.9-17.7,9.2c-6.3,2.3-12.5,3.5-18.7,3.5
	c-8,0-14.5-1.7-19.5-5c-5-3.3-8.2-8.3-9.4-15c-7.5,6.2-15,11-22.5,14.6c-7.6,3.6-14.8,5.4-21.8,5.4c-8.7,0-15.9-2-21.4-6
	C770.2,1531.9,766.3,1526.4,764,1519.5z M926.3,1310V1252h21.7c4.9,0,9.2,0.8,12.7,2.4c3.5,1.6,6.3,3.8,8.2,6.8s2.9,6.5,2.9,10.7
	c0,4.1-1,7.6-2.9,10.6s-4.6,5.2-8.2,6.8c-3.5,1.6-7.8,2.4-12.7,2.4h-15.6v18.3H926.3z M1419.9,1548.8c-2.1,16.4-8,32.8-17.9,49.1
	c-9.9,16.3-23.9,30.6-42,43c-18.1,12.3-40.5,21.7-67.1,28.1c-26.6,6.4-57.5,8-92.7,4.6c-36.7-3.6-68-4.8-93.8-3.7
	c-25.8,1.2-47.5,4.6-65.1,10.4c-17.6,5.8-31.9,13.7-42.8,23.9c-10.9,10.1-19.7,22.5-26.4,37.2c-4.1-10.5-11.4-20.4-22-29.5
	c-10.5-9.1-23.8-16.3-39.9-21.6c-16.1-5.3-34.5-7.8-55.3-7.7c-20.8,0.1-43.5,4.2-68.2,12.1c17.7-19,35.3-35.8,52.8-50.3
	c17.5-14.5,35.3-26.8,53.4-36.8c18.1-10,36.7-17.9,55.9-23.5c19.1-5.7,39.4-9,60.7-10c19.8-1,37.4-0.7,52.8,1
	c15.4,1.7,29.7,4.1,43,7.3c13.2,3.2,25.7,6.9,37.4,11c11.7,4.1,23.8,8,36.2,11.6c12.5,3.6,25.6,6.6,39.5,9.1
	c13.9,2.4,29.5,3.7,47,3.7c19.3,0,36.6-2.5,52-7.5c15.4-5,28.8-11.5,40.1-19.5c11.3-8,20.4-17,27.2-27c6.8-10,11.2-20.1,13.3-30.3
	c2.1-10.1,1.7-19.9-1.2-29.3c-2.8-9.4-8.4-17.3-16.6-23.7c-10.3-8.2-20.8-10.7-31.6-7.5c-10.3,3.1-18.9,11.4-25.7,24.9l0.2,0.4
	c-2.6,6.2-6.1,11.9-10.6,17.1c-4.5,5.3-9.5,9.8-15,13.7c-5.5,3.9-11.4,6.9-17.7,9.2c-6.3,2.3-12.5,3.5-18.7,3.5
	c-12.6,0-21.3-4.2-26.2-12.5c-4.9-8.3-4-20.6,2.7-36.8l24.7-60.1c1.5-3.9,1.7-6.8,0.6-8.9c-1.2-2.1-3.1-3.3-6-3.7
	c-2.8-0.4-6.2,0.1-10,1.3c-3.9,1.3-7.6,3.5-11.2,6.6c-0.5,1.5-1.1,3.1-1.7,4.6c-0.6,1.5-1.2,3.2-1.7,5l-27.7,67.4
	c-2.1,5.4-2.3,9.6-0.8,12.7c1.5,3.1,5.1,4.6,10.8,4.6h3.9l-7.7,16.9c-2.1,0.5-4.2,1-6.6,1.6c-3.9,0.8-8.6,1.2-14.3,1.2
	c-14.6,0-23.8-4-27.6-12.1c-3.7-8.1-2-20.6,5.2-37.6c1.5-3.6,3.6-8.7,6.2-15.4c2.6-6.7,5.3-13.4,8.1-20c3.1-7.7,6.4-15.8,10-24.3
	c1.5-3.9,1.6-6.9,0.2-9.1c-1.4-2.2-3.5-3.5-6.4-3.9c-2.8-0.4-6.2,0.2-10,1.7c-3.9,1.5-7.7,4-11.6,7.3c-0.5,1.5-1.1,3.1-1.7,4.6
	c-0.6,1.5-1.2,3.2-1.7,5c-1.5,4.1-3.7,9.5-6.6,16.2c-2.8,6.7-5.6,13.4-8.3,20.2c-2.7,6.8-5.2,13-7.5,18.7c-2.3,5.7-3.9,9.5-4.6,11.6
	c-2.3,5.4-2.7,9.6-1.2,12.7c1.5,3.1,5.3,4.6,11.2,4.6h3.9l-8.1,16.9c-2.1,0.5-4.2,1-6.6,1.6c-3.9,0.8-8.6,1.2-14.3,1.2
	c-14.6,0-23.8-4-27.4-11.9c-1.1-2.5-1.8-5.5-1.8-9c-3.1,3-6.4,5.8-9.9,8.2c-5.5,3.9-11.4,6.9-17.7,9.2c-6.3,2.3-12.5,3.5-18.7,3.5
	c-12.6,0-21.3-4.1-26.2-12.3c-1.6-2.7-2.6-5.9-2.9-9.4c-3.3,3.4-6.9,6.4-10.8,9.1c-5.5,3.9-11.4,6.9-17.7,9.2
	c-6.3,2.3-12.5,3.5-18.7,3.5c-6.2,0-11.5-1-16-3.1c-4.5-2.1-7.8-5.1-10-9.2c-2.2-4.1-3.1-9.2-2.9-15.4c0.3-6.2,2.1-13.2,5.4-21.2
	l31.6-76.3c-4.6,2.3-9.5,3.5-14.6,3.5c-7.2,0-11.9-2.9-14.3-8.7c-2.3-5.8-1.7-12.8,1.9-21c3.6-9.5,8.5-16.8,14.8-22
	c6.3-5.1,13.2-7.7,20.6-7.7c7.4,0,12.3,2.9,14.6,8.7c2.3,5.8,1.8,12.8-1.5,21c-2.3,6.2-5.1,11.3-8.5,15.4h33.9
	c-0.8,2.3-2.2,5.9-4.2,10.8c-2.1,4.9-4.4,10.5-6.9,17c-2.6,6.4-5.3,13.1-8.3,20c-3,6.9-5.7,13.5-8.3,19.7c-2.6,6.2-4.8,11.5-6.7,16
	c-1.9,4.5-3.1,7.5-3.7,9.1c-2.1,4.9-1.8,8.4,0.8,10.4c2.6,2.1,6.1,2.7,10.6,1.9c4.5-0.8,9.3-3.1,14.5-6.9c4.2-3.1,7.7-7.3,10.7-12.4
	c1.3-3,3-7.2,5.3-12.5c2.7-6.3,5.5-12.9,8.3-19.8c2.8-6.9,5.5-13.5,7.9-19.7c2.4-6.2,4.3-10.7,5.6-13.5c2.1-5.1,2.3-9.3,0.8-12.5
	c-1.5-3.2-5.3-4.8-11.2-4.8h-3.9l8.1-16.6c2.1-0.5,4.2-1,6.6-1.5c2.1-0.5,4.3-0.9,6.7-1.2c2.4-0.3,4.9-0.4,7.5-0.4
	c14.6,0,23.8,4,27.4,12.1c3.6,8.1,1.9,20.6-5,37.6c-1.5,3.9-3.7,9.1-6.4,15.8c-2.7,6.7-5.5,13.4-8.3,20c-3.1,7.7-6.3,15.7-9.6,23.9
	c-2.1,5.1-1.8,8.7,0.8,10.8c2.6,2.1,6.1,2.6,10.6,1.7c4.5-0.9,9.3-3.3,14.5-7.1c4.4-3.3,8.1-7.7,11.2-13.3c1.4-3.7,3.2-8.1,5.4-13.3
	c2.6-6.2,5.2-12.5,7.9-19.1c2.7-6.6,5.2-12.7,7.5-18.5c2.3-5.8,4.2-10.3,5.8-13.7c2.1-5.1,2.3-9.3,0.8-12.5
	c-1.5-3.2-5.1-4.8-10.8-4.8h-3.9l7.7-16.6c2.1-0.5,4.2-1,6.6-1.5c2.1-0.5,4.2-0.9,6.6-1.2c2.3-0.3,4.9-0.4,7.7-0.4
	c17,0,26.6,5.7,28.9,17c6.2-5.1,12.8-9.2,20-12.3c7.2-3.1,14.4-4.6,21.6-4.6c15.7,0,25,5.9,28.1,17.7c6.2-5.4,12.9-9.7,20.2-12.9
	c7.3-3.2,14.7-4.8,22.2-4.8c12.6,0,21.3,4.1,26,12.3c4.8,8.2,3.9,20.4-2.5,36.6l-24.7,60.5c-2.1,4.9-1.8,8.4,0.8,10.4
	c2.6,2.1,6,2.7,10.4,1.9c4.4-0.8,9.2-3.1,14.5-6.9c5.3-3.9,9.6-9.2,12.9-16.2l0,0c4-7.7,8.6-13.9,14.1-18.5
	c5.8-4.9,11.9-8.1,18.3-9.6c6.4-1.5,12.9-1.7,19.5-0.4c6.6,1.3,12.5,3.9,17.9,7.7c12.8,9,22.2,20.8,27.9,35.5
	C1420.1,1516.8,1421.9,1532.3,1419.9,1548.8z M1007.3,1274.2c-2.1-2-5.2-3-9.3-3c-2.8,0-5.5,0.5-8,1.4c-2.5,0.9-4.7,2.2-6.5,3.7
	l-2.7-4.4c2.2-1.9,4.9-3.3,8-4.4c3.1-1,6.4-1.5,9.8-1.5c5.6,0,10,1.4,13.1,4.2c3.1,2.8,4.6,7,4.6,12.7v27h-5.6v-6.8
	c-1.1,1.9-2.7,3.4-4.7,4.7c-2.7,1.7-6.2,2.6-10.3,2.6c-3.3,0-6.1-0.5-8.5-1.6c-2.4-1.1-4.2-2.6-5.5-4.5c-1.3-1.9-1.9-4.1-1.9-6.6
	c0-2.3,0.5-4.3,1.6-6.2c1.1-1.9,2.8-3.3,5.3-4.5c2.5-1.1,5.8-1.7,9.9-1.7h13.9v-2.7C1010.4,1279,1009.4,1276.2,1007.3,1274.2z
	 M1043.7,1268.8c3-1.8,6.7-2.7,10.9-2.7c3.5,0,6.7,0.7,9.3,2c2.7,1.4,4.8,3.4,6.3,6.2c1.5,2.8,2.3,6.3,2.3,10.5v25.3h-5.9v-24.7
	c0-4.6-1.1-8.1-3.4-10.4c-2.3-2.4-5.5-3.5-9.7-3.5c-3.1,0-5.8,0.6-8.1,1.9c-2.3,1.2-4.1,3-5.3,5.4c-1.2,2.4-1.9,5.2-1.9,8.5v22.9
	h-5.9v-43.6h5.6v7.9C1039.4,1272.1,1041.3,1270.2,1043.7,1268.8z M1112.4,1274.2c-2.1-2-5.2-3-9.3-3c-2.8,0-5.5,0.5-8,1.4
	c-2.5,0.9-4.7,2.2-6.5,3.7l-2.7-4.4c2.2-1.9,4.9-3.3,8-4.4c3.1-1,6.4-1.5,9.8-1.5c5.6,0,10,1.4,13.1,4.2c3.1,2.8,4.6,7,4.6,12.7v27
	h-5.6v-6.8c-1.1,1.9-2.7,3.4-4.7,4.7c-2.7,1.7-6.2,2.6-10.3,2.6c-3.3,0-6.1-0.5-8.5-1.6c-2.4-1.1-4.2-2.6-5.5-4.5
	c-1.3-1.9-1.9-4.1-1.9-6.6c0-2.3,0.5-4.3,1.6-6.2c1.1-1.9,2.8-3.3,5.3-4.5c2.5-1.1,5.8-1.7,9.9-1.7h13.9v-2.7
	C1115.5,1279,1114.4,1276.2,1112.4,1274.2z M1097.7,1328c6.4,0,11.9,2.3,16.6,6.9c4.6,4.6,6.9,10.2,6.9,16.6
	c0,6.4-2.3,11.9-6.9,16.6c-4.6,4.6-10.2,6.9-16.6,6.9c-6.7,0-12.3-2.3-17-6.9c-4.6-4.6-6.9-10.1-6.9-16.6c0-6.4,2.3-11.9,6.9-16.6
	C1085.4,1330.3,1091,1328,1097.7,1328z M1165,1307.8c-3,1.7-6.5,2.6-10.3,2.6c-4.1,0-7.9-0.9-11.2-2.8c-3.3-1.9-5.9-4.5-7.8-7.8
	c-1.9-3.3-2.8-7.2-2.8-11.6c0-4.4,0.9-8.3,2.8-11.6c1.9-3.3,4.5-5.9,7.8-7.8c3.3-1.9,7-2.8,11.2-2.8c3.8,0,7.2,0.9,10.2,2.6
	c2.6,1.5,4.7,3.5,6.3,6.1v-26.2h5.9v61.6h-5.6v-8.6C1169.9,1304.2,1167.7,1306.3,1165,1307.8z M1197.2,1297.2
	c1.5,2.5,3.5,4.5,6.1,5.9s5.6,2.1,9,2.1c2.7,0,5.1-0.5,7.4-1.4c2.3-0.9,4.3-2.4,5.9-4.3l3.3,3.8c-1.9,2.3-4.4,4.1-7.3,5.3
	c-2.9,1.2-6.1,1.8-9.6,1.8c-4.5,0-8.5-1-11.9-2.9s-6.1-4.5-8-7.9c-1.9-3.3-2.9-7.2-2.9-11.5s0.9-8.1,2.8-11.4
	c1.9-3.3,4.4-5.9,7.6-7.8c3.2-1.9,6.9-2.9,10.9-2.9c4.1,0,7.7,0.9,10.9,2.8c3.2,1.9,5.7,4.5,7.5,7.8s2.7,7.2,2.7,11.6
	c0,0.3,0,0.6,0,0.9c0,0.3,0,0.6,0,1H1195C1195.2,1292.7,1195.9,1295.1,1197.2,1297.2z M1254.9,1268.7c2.9-1.7,6.4-2.6,10.7-2.6v5.7
	c-0.2,0-0.4,0-0.7,0c-0.2,0-0.4,0-0.7,0c-4.6,0-8.2,1.4-10.8,4.2c-2.6,2.8-3.9,6.8-3.9,11.9v22.2h-5.9v-43.6h5.6v8.4
	C1250.6,1272.2,1252.5,1270.2,1254.9,1268.7z M1279.7,1259.7h-5.8l11.4-10.3h7.9L1279.7,1259.7z M1282.2,1266.5v43.6h-5.9v-43.6
	H1282.2z M1322.6,1274.2c-2.1-2-5.2-3-9.3-3c-2.8,0-5.5,0.5-8,1.4c-2.5,0.9-4.7,2.2-6.5,3.7l-2.7-4.4c2.2-1.9,4.9-3.3,8-4.4
	c3.1-1,6.4-1.5,9.8-1.5c5.6,0,10,1.4,13.1,4.2c3.1,2.8,4.6,7,4.6,12.7v27h-5.6v-6.8c-1.1,1.9-2.7,3.4-4.7,4.7
	c-2.7,1.7-6.2,2.6-10.3,2.6c-3.3,0-6.1-0.5-8.5-1.6c-2.4-1.1-4.2-2.6-5.5-4.5c-1.3-1.9-1.9-4.1-1.9-6.6c0-2.3,0.5-4.3,1.6-6.2
	c1.1-1.9,2.8-3.3,5.3-4.5c2.5-1.1,5.8-1.7,9.9-1.7h13.9v-2.7C1325.7,1279,1324.7,1276.2,1322.6,1274.2z M1476.8,1055.2
	c-6.5,7.9-14.2,14.9-23.1,20.5c-28.1,17.8-59.1,28.3-91.9,28.5c-33.3,0.2-66.6-3.9-99.9-6.6c-1.1-0.1-2.1-0.1-3-0.1
	c-2.8,3.5-6,6.9-9.2,9.9c-2.1,2-4.2,4-6.4,6c-2.4,2.8-4.9,5.4-7.5,7.9c-8.6,8.2-17.5,16.4-27.3,23.2c-10.2,7.1-21.6,12.7-32.6,18.8
	c-1.9,1.1-4.3,1.2-6.1,2.4c-20.2,12.4-42.3,16.9-65.7,17.2c-3.1,0-6.2,1-9.1,2.2c-30.6,11.7-61.4,19.5-93.7,6.6
	c-1.9-0.8-4.4-0.5-6.6-0.4c-26.7,1.2-42.3-10.7-48.5-37.1c-0.7-3-1.3-6.1-2.1-9.7c-25,5.2-49,0.9-72.7-5.8
	c-12.3-3.5-18.6-8.9-21.1-18.2c-2.4,2.5-5.5,4.8-9.6,6.8c-2.4,6.9-8,11.7-18.2,15.8c-12.5,5-26.2,9.6-39.4,9.5
	c-26.9-0.1-53.8-3.5-80.8-5.3c-9.2-0.6-18.5,0.8-27.5-0.4c-25.4-3.5-45.8-15.9-57.8-38.9c-4.8-9.2-6.2-20.3-8.8-29.1
	c-26.7,2.2-54.8,5.9-82.9,6.4c-32.8,0.6-64.4-6.6-93.4-23.2c-51.3-29.2-48-85.5-22.5-117.1c8.2-10.1,15.2-21.4,24-30.9
	c4-4.3,8.2-8.5,12.6-12.5c0.4-0.5,0.8-1,1.3-1.4c9.2-9.9,19.5-18.9,30.2-27.3c10.7-8.5,22.5-15.6,33.5-23.7
	c17.3-12.6,36.4-20.7,57.6-24c1.6-0.2,3.4-0.1,4.7-0.9c16.1-9.2,33.3-13.1,51.8-14.3c-20.6-22.3-40.2-43.7-60-64.9
	C526.8,704,486,664.9,452.7,619c-24.7-34-45.1-70.2-55.2-111.4c-2.6-10.5-3.2-22.2-1.9-32.9c1.6-12.1,7.6-20.4,17.2-25.3
	c4.8-9.9,14.2-15.8,27.1-18.3c23.6-4.7,44.9,2.2,64.9,13.5c32.2,18.2,59.1,43.2,85.3,68.8c25.7,25.2,52,49.8,77.2,75.4
	c-24.4-44.1-45.8-89.4-56.1-139.2c-4.8-23.4-9.1-46.9-5.1-71.1c2.6-15.6,9.4-26.4,19.7-31.7c8.2-14.9,23.4-20.7,44.2-16.4
	c22.4,4.7,40.2,17.2,55.8,33.2c34.3,35.1,59.2,76.9,86.2,117.6c26.5,39.8,42.9,84.4,67.3,125.8c42.6-42.1,94.7-65.5,151.4-79.2
	c52.1-12.6,105-15,158.6-10.6c0-6.5,0-12.9,0-19.3c0.2,0,0.4-0.1,0.6-0.1c0.7,6.6,1.4,13.1,2.1,19.7c1.1,0.1,2.2,0.2,3.2,0.3
	c0.9-15,1.8-29.8,2.5-42.7c0.4,2.6,1.3,7.8,2.2,13c0.7,0.1,1.4,0.2,2.1,0.3c1.5-15.3,3-30.6,4.6-46.3c0,8.6,0,16.7,0,24.9
	c0.8,0.1,1.6,0.2,2.4,0.3c3-17.4,6.1-34.8,9.1-52.1c0.2,3.9,0.4,7.8,0.5,11.7c0.8,0.1,1.6,0.3,2.4,0.4c2.8-14.4,5.6-28.8,8.3-43.3
	c0.1,0,0.3-0.1,0.4-0.1c-0.8,12.3-1.6,24.7-2.4,37c0.4,0,0.8,0,1.2,0c1.2-6.6,2.3-13.1,3.5-19.7c0.2,3.4,0.3,6.7,0.5,10.1
	c1.8-4.5,3.6-8.9,5.4-13.4c1.8-9.3,3.6-18.6,5.4-27.9c0.1,0,0.3-0.1,0.4-0.1c-0.4,5.8-0.7,11.5-1.1,17.3c0.3,0.1,0.5,0.1,0.8,0.2
	c0,5.4,0,10.7,0,13.4c2.2-4.3,4.7-9,7.2-13.8c1.9-4.6,3.7-9.2,5.6-13.8c0.4,0.1,0.7,0.2,1.1,0.3c0,0.2,0,0.5,0,0.7
	c1.4-2.7,2.8-5.4,4.2-8.1c0.8,0.2,1.6,0.5,2.3,0.7c0.4,1.6,0.9,3.2,1.3,4.6c0.3-0.3,0.5-0.6,0.8-1c3.1-5.9,6.3-12.1,9.5-18.2
	c0.8,0.2,1.6,0.5,2.3,0.7c0.2,0.8,0.4,1.5,0.6,2.2c2.3-2.9,4.7-5.8,7.3-8.9c-0.5,1.7-0.9,3.3-1.4,4.8c4.7-5.8,9.7-11.9,15.2-18.7
	c-1.7,6-2.9,10.2-4.6,16.3c7.1-6.2,12.8-11.1,20-17.3c-0.4,9.4-0.8,17.1-1.2,25.3c1.8-1.1,4-2.3,6.7-3.9c-0.9,3.2-1.4,6-2.3,8.6
	c-1.8,5.1-2.1,10.6-3.1,15.7c-2.5,13.2-8,25.8-12.4,38.6c-4.6,13.2-10.4,26-13.6,39.4c-2.7,11.4-2.3,23.5-3.3,35.4
	c0,0.3-0.1,0.6-0.2,0.9c-2.4,10.1-4.9,20.1-7.9,32.7c0.6-0.2,1.2-0.4,1.8-0.6c1.8-4.3,3.1-8.8,5.4-12.6c0.4,1.3,0.9,2.8,1.8,5.6
	c5.4-12,10.1-23.3,15.6-34.1c2.5-4.8,7.3-8.4,10.2-13c14.2-22.7,34.3-42,39.6-70c0.8,0.4,1.6,0.8,2.5,1.2c-1.3,4-2.6,8.1-3.9,12.1
	c0.6,0.4,1.2,0.7,1.8,1.1c3.5-5.6,6.9-11.2,10.4-16.9c1.3-3.6,2.3-7.4,3.1-11.3c0.8,0.4,1.6,0.8,2.5,1.2c-0.3,0.8-0.5,1.6-0.8,2.4
	c1.8-2.9,3.5-5.7,5.3-8.6c0.2,0.1,0.4,0.1,0.5,0.2c-2.5,6.3-5,12.6-7.5,18.9c0.1,0.1,0.2,0.1,0.4,0.2c6.8-11.1,13.7-22.1,20.5-33.2
	c0.2,0.1,0.4,0.1,0.5,0.2c-3.4,8.5-6.7,16.9-10.1,25.4c3.8-4.8,7.6-9.5,11.4-14.3c0.6,0.3,1.2,0.6,1.8,0.9c0,0.2-0.1,0.3-0.1,0.5
	c4.1-5.1,8.1-10.2,12.2-15.2c0.6,0.3,1.2,0.6,1.8,0.9c-0.9,3.5-1.8,6.9-2.5,9.7c2.3-2.5,4.6-5.1,7.1-7.5c1.9-1.8,3.8-3.6,5.7-5.3
	c2.6-2.9,5.3-5.8,8.1-8.6c8.4-8.2,17.9-15.2,27.8-22.3c-4.1,4.8-8.3,9.6-12.4,14.4c0.6,0.5,1.2,1.1,1.8,1.6
	c14.2-11.1,28.4-22.1,44.3-34.5c-9.1,9.9-16.8,18.4-24.6,26.9c0.4,0.5,0.8,1,1.2,1.5c8.2-4,16.4-7.9,24.6-11.9
	c0.6,0.5,1.2,1,1.8,1.5c-3.6,8.5-7.3,17-11.4,26.6c4.3-2.3,8-4.2,12.9-6.9c-5.1,6.4-9.8,11.3-13.2,17c-4.1,6.9-6.9,14.7-10.7,21.8
	c-1.2,2.3-3.9,3.7-5.3,5.9c-1.7,2.6-5.5,4-7.7,6.3c-0.3,0.6-0.6,1.1-0.9,1.7c-0.2,0.4-0.5,0.8-0.7,1.1c-0.3,1.4,0,3.1,1.1,5.3
	c0.1,0.1-0.3,0.6-0.5,0.8c-8.5,7.7-15.9,15.6-22,26c-7.9,13.4-22.9,22-27.5,38.8c-2.1,7.7-8.8,14.1-14.5,22.8
	c4.2-0.8,5.8-1.1,7.1-1.4c-7.1,8.7-14.2,17.4-21.3,26c0.6,0.6,1.2,1.1,1.9,1.7c3.7-3,7.3-5.9,11-8.9c0.3,0.3,0.5,0.6,0.8,0.9
	c-7.1,7.5-14.2,15-22.1,23.3c3.4,2.3,6.1,4.2,8.9,6c52.3,34.2,76.2,103.2,56,162.2c-4.7,13.8-11.3,25.7-22.7,32.7
	c-6.4,9.8-15.4,17-29,19.6c0,0.2,0,0.5,0,0.7c0.1,24.5,0.6,49,1.2,73.5c0.2,8.6,1.3,17.1,1.9,24.5c20,6.4,39.3,11.6,57.8,18.7
	c21.3,8.2,40,20.7,55.2,38.2C1527.8,955.2,1518.5,1021.2,1476.8,1055.2z M1277.9,863.8c10.6-1.8,21.1-3.6,32.1-5.4
	c0-19.7,0-38.7-0.1-57.7c0-1.7-1-4.7-1.6-4.7c-2.3-0.1-5,0.3-6.9,1.5c-14.2,8.8-23.2,5.6-25.1-9c-0.8,11.7-1.8,23.4-2.3,35.1
	c-0.2,5.3,0.6,10.6-0.5,16c-2.9-8.2-4.4-16.5-5-24.9c0,0,0,0,0,0c-0.6-9.5,0.2-19.1,2-28.8c1.7-1.1,3.5-2.2,5.2-3.3
	c0.2,1.3,0.5,2.7,0.7,4c6.7-5.9,5.5-14.7-3.6-23.8c-1.6,4-3.2,7.8-4.4,11.6c-1.2,3.9-4.6,8.3,1.4,11.3h0c-1.7,10.5-3.4,20.9-4.7,29
	c-1.4-7.7-3.1-17.7-5.3-29.6c-3.2,12.8-0.7,25.3-11.4,33.5c-0.6,0.5,0.9,6.2,2.6,7c8.5,3.9,9.9,10.9,9.9,19c0,7.2,0,14.3,0,21.6
	c-4.6,1.7-9,3.3-13.1,4.8c-7-9.9-1.7-18,4.1-26.3c-8.1-2.2-11.7,0-11.1,6.8c0.7,7.8,2.2,15.6,3.6,25.1c9.8-8.5,24.9-4,30.3-18.7
	C1276,860.2,1277,862,1277.9,863.8z M1305.4,839.4c0,7.2,0,12.2,0,17.7C1299.8,853.1,1299.6,849.9,1305.4,839.4z M1283.4,808.9
	c3.1,0.8,6,3.4,8.3,5.9c0.9,1,0.2,3.6,0.2,5.5c-0.8,6.3-1.3,12.6-2.4,18.8c-0.4,2.2-2.3,5.8-3.4,5.7c-2.5-0.2-6.6-1.8-6.9-3.4
	c-1.8-9.8-2.8-19.8-3.4-29.8C1275.7,810.8,1281.1,808.3,1283.4,808.9z M594.7,825.9c-2.2-0.1-4.5-0.2-6.7-0.3c0.7-0.5,1.3-1,2-1.4
	c0.2-0.2,0.5-0.3,0.7-0.5c0.5-0.3,0.9-0.6,1.4-0.9c0.3-0.2,0.6-0.4,1-0.5c0.4-0.2,0.8-0.5,1.3-0.7c0.4-0.2,0.7-0.4,1.1-0.6
	c0.4-0.2,0.8-0.4,1.2-0.6c0.4-0.2,0.8-0.4,1.2-0.5c0.4-0.2,0.8-0.3,1.2-0.5c0.4-0.2,0.9-0.4,1.4-0.5c0.4-0.1,0.7-0.3,1.1-0.4
	c0.5-0.2,1-0.4,1.5-0.5c0.3-0.1,0.7-0.2,1-0.3c0.6-0.2,1.1-0.3,1.7-0.5c0.3-0.1,0.6-0.2,0.8-0.2c0.6-0.2,1.3-0.3,1.9-0.5
	c0.2,0,0.4-0.1,0.5-0.1c53.7-13,148.8,23.5,159.2,74.1c-19,5.7-37.1,11.3-55.3,16.5c-2.9,0.8-6.3-0.4-9.6-0.7
	c-0.8,1.8-2.3,5.3-3.8,8.7c-6-27-21.2-47.7-40.4-65.2C641,833.2,618.6,827.4,594.7,825.9C594.7,825.9,594.7,825.9,594.7,825.9z
	 M1181.2,1143.5C1181.2,1143.5,1181.2,1143.5,1181.2,1143.5C1181.2,1143.5,1181.2,1143.5,1181.2,1143.5
	C1181.2,1143.5,1181.2,1143.5,1181.2,1143.5C1181.2,1143.5,1181.2,1143.5,1181.2,1143.5z M822.7,1134.3
	C822.7,1134.3,822.7,1134.3,822.7,1134.3c-0.6,0.4-1.1,0.7-1.7,1.1C821.6,1135,822.1,1134.7,822.7,1134.3z M1242.6,1051
	c0.9,8.4-1,17-1.6,25.6c-0.5,7.2-6.3,8.4-11.3,8.4c-1.8,0-4.2-5.5-5.2-8.9c-1.3-4.3-1.6-9-2.3-13.6c-1,0.1-1.9,0.1-2.9,0.2
	c0,12.3,0,24.5,0,36.8c-0.9,0-1.7,0.1-2.6,0.1c4.6-26.3-0.9-51.3-9.4-75.8c0.9,0.8,1.8,1.5,3.2,2.6c-4.3-27.4-40.2-61.7-62.7-60.7
	c34.6,16.9,47,28.5,59.2,55.5c-1.6-1.8-3.6-3.5-4.9-5.6c-20.6-35.2-52.2-51.6-91.9-54.5c-1.8-0.1-3.6-0.2-5.4-1
	c26.7-9.9,53.3-10.5,78.7,3.6C1217.7,982.8,1238.4,1011.7,1242.6,1051z M1252.8,1068.2c0-3.3,0-6.6,0-9.9
	C1252.9,1061.5,1252.9,1064.8,1252.8,1068.2z M1401.1,462.2c-1.1,4.1-2.8,7.9-5.1,11.3c0,0-0.1,0.1-0.1,0.1c-0.3,0.5-0.6,0.9-1,1.4
	c0,0.1-0.1,0.1-0.1,0.2c-0.3,0.5-0.7,0.9-1.1,1.4c0,0-0.1,0.1-0.1,0.1c-8.1,10-21.5,16.9-39.4,20.1
	C1358.6,469.7,1382.7,470.1,1401.1,462.2z M1386.7,489.6c-2.5,8.1-7.2,15.7-13,21.9c-0.1,0.1-0.1,0.2-0.2,0.2c0,0,0,0,0,0
	c-2.8,3-5.8,5.7-9,7.9c0,0,0,0,0,0c0,0,0,0,0,0c0,0,0,0,0,0c-9.7,7-20.6,10.5-29.4,8.2C1341.1,500.3,1367.4,500.8,1386.7,489.6z
	 M526.2,974.4c-12.9-28.2-35.3-45-66.1-54.1C493.7,916.7,524.2,942.3,526.2,974.4z M1370.7,522c0.1,0,0.1,0,0.2-0.1
	c-3.7,6.4-6.4,11-9.5,16.3c-0.2-0.1-0.3-0.1-0.5-0.2c-0.2-0.1-0.3-0.1-0.5-0.2v0c-3.2-1.3-6.4-2.6-10-4.1c0,0,0,0,0,0
	c-1.3-0.6-2.8-1.1-4.3-1.7c4.2-1.7,8.1-3.3,12-4.9c0,0,0,0,0,0C1362.1,525.5,1366.1,523.9,1370.7,522L1370.7,522z M684.9,887.9
	c5.8,9.5,11,20.1,6.2,34.7c-22.1-46.2-52.8-78.6-100.6-92.3C632.6,832.3,663.5,852.7,684.9,887.9z M517.1,1035.2
	c-6.4,4.5-12.4,9.7-19.1,13.7c-3.1,1.8-7.6,1.2-12.3,1.9c1.1-6.4,1.5-11.2,3-15.6c0.7-2,3.7-4,5.9-4.4c11.5-2,23.1-3.5,34.4-5.1
	c-1.7,2.8-3.9,6.5-6.1,10.3c-0.3-0.7-0.6-1.4-1-2.1C520.4,1034.2,518.4,1034.2,517.1,1035.2z M1314.7,814.2
	c-0.1-0.9-0.3-1.9-0.4-2.8c0.1,0,0.3-0.1,0.4-0.1C1314.7,812.2,1314.7,813.2,1314.7,814.2z M624.1,1008
	C624.3,1008.4,624.3,1008.5,624.1,1008L624.1,1008z M518.9,1047.8c3.6-4.1,6.8-7.8,11.2-12.9c0,5.6,0,9.8,0,14.7
	C525.6,1048.9,522.4,1048.4,518.9,1047.8z M680.9,928.2c1.8-2.1,4.2-5.9,3.5-7.6c-8.9-20.8-20.8-39.6-39.1-53.5
	c-0.6-1-0.9-2.3-1.8-3c-18.9-16.3-40.7-26.8-65.2-31.5c-2-0.4-4-0.4-6-0.4h0c-0.4,0-0.8,0-1.3,0c-0.2,0-0.3,0-0.5,0
	c-0.5,0-1,0-1.5,0c5.9,2.8,11.8,3.4,17.5,4.9c5.3,1.4,10.3,3.7,15.5,5.5c-3.9,0.7-7-0.6-10.3-1.5c-13.4-3.6-26.7-6.2-39.5-5.2
	c0,0-0.1,0-0.1,0c-11.7,1-22.9,5.1-33.4,14.4c0,0,0,0,0,0c-0.4,0.4-0.8,0.7-1.2,1.1c-6.1,5.7-12,11.7-17.9,17.6
	c-4.3,2.2-8.6,4.5-10.8,5.6c14.6,2,30.6,4.2,46.6,6.4c-0.2,1.2-0.4,2.4-0.5,3.6c-7.3-1.6-14.6-4.2-21.9-4.7
	c-35.4-2.5-44.3-2.2-63.9,28.2c-7,10.9-14.5,21.6-22.9,31.6c-23.7,28.2-17.3,71.2,14.9,91.4c3.4-7,8.4-7.2,14.7-3.3
	c2.8,1.7,6.6,2.1,10.1,2.3c17,1,32.8-3.5,47.5-11.9c20.6-11.7,20.7-11.7,33.4,7.8c1,1.5,1.9,3.1,2.2,3.6c-2.3,4.5-5.2,7.9-5.5,11.5
	c-1.1,12.7-7.6,18.3-20.4,16.6c-4-0.5-7.9-1-11.9-1.6c29.8,7.1,59.8,6,89.7,1.1c12.9-2.1,21.5-12.4,22.6-25.4
	c-2.3,3.5-5,7.6-7.7,11.7c-0.7-0.4-1.4-0.8-2-1.2c0.4-1.8,0.8-3.5,1.3-5.3c-0.1,0.1-0.2,0.1-0.3,0.2c2.7-10.3,5.4-20.5,8.4-31.8
	c0.5,1.1,0.8,2,1,2.5c5.2-10.2,9.8-22.8,17.5-33.2C653.6,958.4,667.8,943.7,680.9,928.2z M445.6,929.1c7.9-4,13.5-3.2,38.6,7
	c0.6,1,1.2,1.9,1.6,2.6C471.9,935.4,457.9,932,445.6,929.1z M529.4,986.3c-4.9-6.6-9.3-12.7-13.8-18.8c3.1,6.6,6.2,13.2,9.3,19.8
	c-0.7,0.3-1.4,0.6-2,0.9c-5.7-10.9-11.4-21.8-16.9-32.8c-0.2-0.4,1-1.4,1.5-2.2c-7.8-5.8-15.6-11.6-23.4-17.4c0,0.1,0.1,0.2,0.1,0.2
	c-12-5.4-24-10.9-35-15.9c7.6-7.2,31.9-5.5,50.9,5.7C522.7,939.4,535.2,964.6,529.4,986.3z M622.3,853.1c7.6,4.7,15.2,9.3,22.8,14
	c4,5.9,8,11.8,13,19.2c-13-11.8-24.4-22.1-35.9-32.5C622.3,853.6,622.3,853.4,622.3,853.1z M527.1,859.8c13.8,2.6,27.6,5.1,41.4,7.7
	c-0.1,0.9-0.3,1.7-0.4,2.6c-13.7-2.9-27.4-5.9-41.1-8.8C526.9,860.8,527,860.3,527.1,859.8z M532.8,999.8c0-12.3,0-24.4,0-38.7
	C539.8,974.6,539.4,988.2,532.8,999.8z M548,1045.6c-1.1-1.3-0.1-4.4-0.1-6.6c2,0,5.6-0.2,5.6,0.2c2,12.9,16.1,10.4,21.9,18.3
	C562.9,1062.1,555.1,1054.4,548,1045.6z M614.7,1037.3c-3.8,2.8-7.6,4.3-11.5,4.8c0,0,0,0,0,0c-5.3,0.7-10.7-0.6-16.1-3.2
	c10.3-7.6,20.3-15,31.2-23C617.1,1022.9,615.9,1030.1,614.7,1037.3z M622,963c-2.8,7.4-1.8,16.3-4.4,24.6c-0.3-2-1-3.9-1-5.9
	c1.2-32.9-15-56.8-38.8-77.2c-20.7-17.7-44.1-28.6-71.3-31.3c-2.3-0.2-4.4-2.7-6.6-4.2c32.6-9.8,61.7,0.2,89.1,16.9
	C607.6,897.4,631.8,937.1,622,963z M628.8,955.8c-2.1-12.2-4-23.2-6.3-36.4C629.5,931.9,631.5,942.9,628.8,955.8z M696.8,1073.1
	c1.8,0.4,3.6,0.9,5.4,1.3c-2.1,5.9-4.6,11.7-6.1,17.8c-1.5,6.3-1.8,12.8-2.7,19.3c-1-0.2-2-0.3-3-0.5
	C692.5,1098.3,694.7,1085.7,696.8,1073.1z M1326.7,963.9c14-2.4,27.7-8.1,41.7,0C1354.5,963.9,1340.6,963.9,1326.7,963.9z
	 M819.1,1135.4c0.6,0,1.2,0,1.9,0c0,0,0,0,0,0C820.4,1135.4,819.8,1135.4,819.1,1135.4C819.1,1135.4,819.1,1135.4,819.1,1135.4z
	 M721.9,1041c-17.8,18.9-17.8,18.9-12.8,24.6c2.5-2.8,4.8-5.9,7.6-8.4c9.7-8.5,18.8-18,29.6-24.9c18.1-11.6,32.5-9.4,48.8,4.7
	c6.1,5.3,12.3,10.6,18.4,15.9c0.8-0.3,1.6-0.6,2.4-1c-1.4-14.1-0.9-28.7-4.7-42.1c-9.8-33.8-39.4-50.7-74.4-47.9
	c-43.3,3.5-91.9,51-102.1,87.9c-3.4,12.3-3.4,22.1,0,29.2c0.4-17.4,8-32.9,17.5-47.5c10.2-15.6,22.6-29.3,41.1-39.1
	c-0.9,2.4-0.9,2.8-1.1,3c-1.5,1.2-3,2.3-4.5,3.4c-21,15.6-35.8,35.6-45.3,60.1c-4.8,12.4,5.4,22.5,2.7,34.1
	c-0.4,1.6,0.9,3.6,1.5,5.9c0.5-9.3,0.9-17.8,1.3-26.2c1.1,0.1,2.2,0.1,3.2,0.2c0,5,0,10,0,14c6.7,4,12.5,7.6,17.9,10.8
	c0.4-2.3,1-5.8,1.6-9.2c0.7,0,1.4,0.1,2.1,0.1c0.7,2.9,1.3,5.7,2,8.4c3-1.4,5.9-2.8,9.5-4.4c0.4,4.2,0.8,7.1,1.1,10.1
	C688.9,1073.4,706.1,1043.8,721.9,1041z M802.8,1039.1c-12.7-16.5-29.3-20-49-15C766.6,1010.8,797.4,1020.2,802.8,1039.1z
	 M1317.7,810.3c-1,0.3-2,0.7-3,1c0.1-3.6,0.1-7.1,0.3-10.7c0.4-10.2,4.8-12.1,14.9-11c2.2,0.2,7.2-4.8,6.9-6.7
	c-1.6-8.7-4.7-17-8.1-28.4c7.3,1.1,13,1.9,19.9,3c-9.4,27.7-12,54.3-7.8,81.4c1,0.1,2,0.2,3,0.2c0-6.5,0-13.1,0-19.6
	c0.1-7-0.1-14,0.5-21c0.6-6.8,2-13.6,3.1-20.3c1.1,0.1,2.2,0.2,3.3,0.3c-0.3,4.1-0.6,8.2-1,12.3c-1.2,13.2-2.6,26.3-3.5,39.5
	c-0.1,0.9,4.1,3,6.1,2.9c3.6-0.2,7.2-1.8,11.2-2.9c0-16.6,0-34.3,0-52c0,0,0.1,0,0.1,0c0.4,0,0.8,0,1.2-0.1c0.3,6.6,0.7,13.2,1,19.7
	c1,19.8,2,39.6,3,59.7c0,0,0,0,0,0c-16,0-31.9,0.2-47.7-0.2c-2-0.1-5.6-3.5-5.7-5.4c-0.4-12.6-0.8-25.1-0.8-37.7
	c1.1,7.4,2.5,14.8,2.6,22.3c0.1,6,0.5,12.7,7,11.9c4.6-0.5,11.6-6.6,12.1-10.8c1.6-13.3,0.6-26.9,0.6-40.4c-3.2,7-3.9,14.1-5.4,21.1
	c-0.6,2.7-3.1,5-4.8,7.5c-1.6-2.2-3.4-4.4-4.7-6.8C1320.3,816.3,1319.1,813.2,1317.7,810.3z M1304.6,774c3.9-13.9,3-15.5-11.8-17.6
	c-1.6-0.2-3.1-0.4-4.7-0.8c-0.5-0.1-0.8-0.9-2.5-2.8c5.8-0.7,10.5-1.7,15.3-1.8c4.3,0,8.7,1,12.1,1.4c-1.1,8.5-2.4,18.2-3.6,27.9
	c1.3,0.2,2.6,0.5,3.9,0.7c1.2-5.7,2.4-11.4,3.7-17c0.4,0,0.8,0,1.1,0c0.3,4.2,1,8.3,0.7,12.4c-0.1,2.5-1.5,6.8-2.7,7
	c-3.1,0.4-6.9-0.3-9.5-2.1C1305.2,780.1,1304,776.1,1304.6,774z M619.7,953.6c-20.7-45.7-55.5-72.8-106.3-83.2
	C555.9,862,626.8,904.7,619.7,953.6z"/>
</svg>
