<?xml version="1.0" encoding="utf-8"?>
<!-- Generator: Adobe Illustrator 23.0.5, SVG Export Plug-In . SVG Version: 6.00 Build 0)  -->
<svg version="1.1" id="Capa_1" xmlns="http://www.w3.org/2000/svg" xmlns:xlink="http://www.w3.org/1999/xlink" x="0px" y="0px"
	 viewBox="0 0 1920 1920" style="enable-background:new 0 0 1920 1920;" xml:space="preserve">
<style type="text/css">
	.st0{fill:#FFFFFF;}
</style>
<path class="st0" d="M1715,33H205c-94.6,0-172,77.4-172,172v933.2c0,411.9,337,748.8,748.8,748.8h356.4
	c411.9,0,748.8-336.9,748.8-748.8V205C1887,110.4,1809.6,33,1715,33z M1532.1,1070c0,254.2-207.9,462.1-462.1,462.1H850
	c-254.2,0-462.1-207.9-462.1-462.1V494c0-58.3,47.8-106.1,106.1-106.1h932c58.3,0,106.1,47.8,106.1,106.1V1070z"/>
</svg>
