<svg xmlns="http://www.w3.org/2000/svg" viewBox="0 0 431.67 480.54"><defs><style>.cls-1{fill:#fff;}</style></defs><title>Castor Solo Contorno</title><g id="Capa_2" data-name="Capa 2"><g id="Transparentes"><path id="Castor_Solo_Contorno" data-name="Castor Solo Contorno" class="cls-1" d="M426.26,73.25c-2.07,0-4.32,0-6.85-.06a313.66,313.66,0,0,1-71.1-9.7,31.31,31.31,0,0,0-13.08-19.73A36.8,36.8,0,0,0,314,37.13a39.45,39.45,0,0,0-21.25,6.29,312.7,312.7,0,0,1-50-29.63l-3.18-2.31-3.18,2.31A313.18,313.18,0,0,1,206.53,33a26.53,26.53,0,0,0-3.63-.25l-1.26,0a32.73,32.73,0,0,0-19.14,7.42A31.53,31.53,0,0,0,175,48.52a312.48,312.48,0,0,1-30.21,11,77.24,77.24,0,0,0-5.26-20C129.52,15.14,107.59,0,82.33,0A65.2,65.2,0,0,0,62.47,3.16C46.11,8.42,31.91,19.07,20.3,34.82,8.13,51.32,1.36,69.41.18,88.62s3.45,34.67,14.16,47.61a78.29,78.29,0,0,0,11.05,10.36l2,1.62a5.56,5.56,0,0,1,2.19,5.3,20.59,20.59,0,0,0-11.88,7.62,23.25,23.25,0,0,0-4.75,17.52c-8.34,6.32-11,16.2-6.86,25.61C.64,213.48,2,225.7,9.12,232.51c-5.44,9.68-2.89,19.46,6.7,25.61,6.34,4.07,13.42,5.56,20.11,6.57a37.07,37.07,0,0,0,5.57.47,19.52,19.52,0,0,0,8.65-1.83A142.87,142.87,0,0,0,60.21,281.2a120.51,120.51,0,0,0,19.57,23,375.52,375.52,0,0,0,44.45,75.31q4.89,6.45,10,12.65,5.25,6.36,10.78,12.47c1.57,1.75,3.16,3.47,4.77,5.18q10.27,11,21.4,21.11c1.5,1.36,3,2.71,4.52,4a379.68,379.68,0,0,0,61.1,44l2.71,1.56,2.71-1.56a380,380,0,0,0,48.11-33q2.37-1.93,4.73-3.88,13.17-11,25.32-23.11,4.74-4.71,9.29-9.59,6.56-7,12.75-14.34a379.5,379.5,0,0,0,37-52.12,376.21,376.21,0,0,0,26.82-55.47,378.22,378.22,0,0,0,16.19-53.31c.65-2.88,1.25-5.75,1.83-8.64q1-5.2,1.94-10.45t1.65-10.41q1.09-7.72,1.89-15.52.43-4.31.77-8.62.54-6.78.82-13.6.17-3.72.24-7.44c.07-2.88.1-5.77.1-8.65V73.25ZM239.54,24.83a326.57,326.57,0,0,0,27.94,17.71A108.17,108.17,0,0,0,253.31,41c-1.6-.06-3.24-.11-4.84-.11a116.16,116.16,0,0,0-27.24,3.37,21.26,21.26,0,0,0-3.4-5.32Q228.92,32.35,239.54,24.83ZM145.43,70.66q12.58-3.75,24.83-8.52a51.74,51.74,0,0,0-.56,6c-.06,1.76-.32,2.16-1.3,3C157.77,80,150.56,87.82,145,96.37c-3.66,5.63-3.75,11.33-.33,16.25A128.22,128.22,0,0,0,125,134.22c-10,14-13,28.85-8.87,44.2,3,11.27,10.39,20.5,22.51,28.22l.45.28h0a46,46,0,0,0,2.71,7.92c-4.77,3.49-9.46,7-13.92,10.43-8.91-1.77-17.21-5.8-25.38-12.3-.7-.57-.8-.78-.8-.79a1.2,1.2,0,0,1,0-.42,57,57,0,0,0,.09-18.52c-2.2-12.9-8-22-17.87-27.65a50.88,50.88,0,0,0-4.59-2.38,12.84,12.84,0,0,1,6.06-3.87c15.06-4.44,27.5-13.08,38-26.42a101.53,101.53,0,0,0,20.33-45.26A99.89,99.89,0,0,0,145.43,70.66ZM122.29,358a368.76,368.76,0,0,1-24-40.5,99,99,0,0,0,12,5.6,91.72,91.72,0,0,0,26,6.23,53.37,53.37,0,0,0-11.69,19.81A66.23,66.23,0,0,0,122.29,358Zm158.29,81.91a365,365,0,0,1-41,28.14,366.72,366.72,0,0,1-49.08-34.68c6.52-.77,13.13-1.6,19.79-2.48l2.2-.26c3.87-.43,8.25-.92,12.35-3.37,6.38-3.82,8.56-9.6,6.31-16.73,18.07,7.18,36.36,9.94,51.94,11.25a31.83,31.83,0,0,0-3.44,7.53A13.06,13.06,0,0,0,280.58,439.88ZM415.76,211.49c-3.24-5.14-6.55-10.24-9.86-15.34-.61-1-1.06-1.63,0-2.73,4.69-4.91,9.3-9.89,13.9-14.9Q418.53,195.16,415.76,211.49Zm5.09-60.68q0,7.68-.32,15.33c-2.93-3.89-5.83-7.79-8.88-11.57-1.54-1.91-2.92-4-5.25-5.74a16.94,16.94,0,0,0,2.26,6q4.56,7.69,9.29,15.33c.73,1.17.74,1.93-.31,2.92-5.22,4.92-9.65,10.56-14.32,16-1.09,1.27-1.48,1.17-2.43-.08-2.58-3.43-5.32-6.74-8.13-10.27a2.58,2.58,0,0,0,0,2.21,70.57,70.57,0,0,0,5.28,11.69c.66,1.29.75,2.08-.32,3.24-2,2.15-3.56,4.73-5.65,6.77-3,2.94-2.33,6.54-2.82,10.16,1.25-.29,1.51-1.15,2-1.73,3-3.56,6-7.13,8.87-10.74,1-1.22,1.49-1.34,2.35.21q5.14,9.24,10.57,18.31c.79,1.33.76,2.07-.26,3.21-3.71,4.11-7.27,8.37-10.95,12.5-1.52,1.72-2.05,3.19-.55,5.35,1.71,2.47,1.44,2.58,3.42.22,2.32-2.76,4.65-5.51,7-8.28a363.77,363.77,0,0,1-11.38,39.65c-7.89-19.2-18.49-36.64-34.11-50.68-9-8.13-19.17-14.25-31.16-17-1.45-.33-1.91-.4-1.75,1.47.43,5.24.48,10.51.78,15.76.11,1.88-.48,2.16-2.13,1.5a47.21,47.21,0,0,0-6.57-2.26c-5.09-1.18-10.2-2.9-15.11.87-3.89,3-8.07,5.61-12,8.57-16,12.17-32.85,23.09-51.48,31-4.78,2-9.48,4.27-14.79,6,2.59-4,5-7.46,6.65-12-2.6,1.35-4.66,2.39-6.7,3.49-12.8,6.89-26.55,12.41-35.64,25.08-.1-.33-.2-.67-.28-1a.14.14,0,0,1,0-.06c-.09-.3-.16-.59-.23-.88l-.06-.22c0-.12-.06-.24-.08-.35-.19-.73-.35-1.46-.49-2.19-.05-.26-.11-.52-.15-.78s-.11-.6-.16-.9-.13-.88-.19-1.33c-.1-.79-.18-1.57-.23-2.37,0-.27,0-.54-.05-.82s0-.27,0-.41c0-.38,0-.76,0-1.13s0-.68,0-1c0-.13,0-.25,0-.36a.26.26,0,0,1,0-.09c0-.16,0-.32,0-.48a.19.19,0,0,1,0-.08c0-.22,0-.44,0-.65a4.53,4.53,0,0,1,0-.53s0,0,0-.05a0,0,0,0,1,0,0s0,0,0,0c0-.17,0-.33,0-.49h0c0-.18,0-.35.07-.53a1.25,1.25,0,0,1,0-.19,4.29,4.29,0,0,1,.07-.5c0-.2.07-.41.11-.63a4.46,4.46,0,0,1,.09-.48c0-.21.08-.42.13-.64s.09-.41.15-.61.13-.55.2-.83.22-.78.34-1.17a1.64,1.64,0,0,1-.35-.3c-8.6,5.48-12.47,14-14.72,23.85-5.3-6.95-7.25-14.81-8.84-23.05a5.59,5.59,0,0,0-.59.73c-.18.41-.34.82-.49,1.24a76.68,76.68,0,0,0-1.36,47.08c5.15,18.18,14.87,33.67,28.37,46.84A125.65,125.65,0,0,0,234,382.69l.26-.26a29.73,29.73,0,0,1-4.16-3.73c-4.54-5.84-9.78-11-14.93-16.25-8.25-8.48-10.18-18.75-5.29-29.91a52,52,0,0,1,15.89-19.9,44.49,44.49,0,0,1,33.48-9.34c6.57.75,11.39-.95,15.87-5.18a5.13,5.13,0,0,1,.65-.47,5.12,5.12,0,0,0,2.41-4.71,43.06,43.06,0,0,1,3.73-19.82,39.57,39.57,0,0,1,6.89-10.47c-1,10.13.28,19.3,4.85,28,1.29,2.42,2.79,3.36,5.55,2.61a55,55,0,0,1,6.92-.91c-1.86,1.49-3.28,2.66-4.73,3.79-8.11,6.3-16.84,11.73-25.25,17.61a6.11,6.11,0,0,1-4.7,1.18c-2.82-.41-5.66-.81-8.51-1-6.78-.36-13.54-.41-20.07,2-9.71,3.65-16.39,10.61-21.2,19.5-2.71,5-2.42,10.28-.43,16,5.15-10.79,12.91-17.68,24.17-21-5.92,6.89-10.88,13.91-12.58,22.73-1.09,5.67.93,11.72,5,14.09a15.71,15.71,0,0,1,2.36-5.65c4.45-7.82,10.87-13.11,19.75-15.2.36-.23.36-.1.2.2-2.47,4.22-5.63,8.05-7.18,12.79-3,9.1,2.17,17.42,11.27,18.13.87.07,2,.49,2.54-.22.63-.89-.58-1.53-1-2.21-3.86-5.71-1.15-12.57,5.61-13.63,7.86-1.24,15.13-3.54,20.64-9.65a6.39,6.39,0,0,1,5-2.09c9.18-.25,18-2.38,26.69-5.16,8.95-2.85,16.53-8.05,23.68-13.89,9.84-8,15.28-18.45,15.66-31.31a72.82,72.82,0,0,0-1.6-16.77,8.76,8.76,0,0,1,2.49,2.8,56.93,56.93,0,0,1,6,12.82c3.14,9.73,3.1,19.31-1.5,28.62-3.77,7.65-10.1,13.09-16.45,18.45-5.73,4.83-11.83,9.22-17,14.71-4.2,4.48-6.75,9.65-6,16A22.39,22.39,0,0,0,334,388.07a368.28,368.28,0,0,1-49.86,49,9,9,0,0,1-.22-6.49,32.46,32.46,0,0,1,5.42-10c.56-.77,1.14-1.53,2-2.66-24.1-1.48-47.29-5.28-68.8-16.14l-.45.35c1.73,3.19,3.69,6.26,4.8,9.76,1.61,5.09.24,8.81-4.34,11.55-4,2.37-8.49,2.47-12.83,3q-11.92,1.57-23.87,2.95a369.37,369.37,0,0,1-59.69-65.89,52.5,52.5,0,0,1,2.76-13c3.45-10.47,9.85-18.7,19-25.56-12.77.78-24.51-1.62-35.89-6.06A94.71,94.71,0,0,1,94.64,310,99.37,99.37,0,0,1,75.12,293.2a121,121,0,0,1-11.18-14.48,146.73,146.73,0,0,1-12-22.18c-4.33,4.47-9.67,4.58-15.36,3.72-6.47-1-12.77-2.33-18.37-5.91-7.58-4.87-9.56-12.18-5-19.95,1.31-2.23,1.23-3.12-.73-4.9-6-5.46-6.93-15.89-2.33-23.33a2.66,2.66,0,0,0,.34-3c-3.88-8-1.68-16.11,5.75-21.35,1.16-.82,1.54-1.35,1.26-2.89-2-11,6.05-20.74,14.87-21.25,1,0,1.06-.48,1.25-1.28,1-4.53.4-8.44-3.39-11.59-4.33-3.6-8.81-7-12.43-11.4-10.72-13-14.15-28.09-13.14-44.48,1.17-19.07,8-36.12,19.25-51.41,10.3-14,23.23-24.69,39.94-30,29.72-9.54,59.58,4.67,71.57,33.8a72.93,72.93,0,0,1,5.05,19.62A82.4,82.4,0,0,1,140.93,72a96.18,96.18,0,0,1-1.58,14.89,96.55,96.55,0,0,1-19.44,43.29c-9.42,11.92-21,20.55-35.79,24.89-5.22,1.54-9,5.21-11.57,10.28a53.8,53.8,0,0,1,9.13,4.14C91.13,175,95.6,183.59,97.37,194a52.63,52.63,0,0,1-.1,17.08c-.4,2.61.78,4.1,2.43,5.41,8.17,6.5,17.21,11.23,27.58,13.24a3.22,3.22,0,0,0,2.91-.59c5.32-4,10.66-8.08,16.07-12,.94-.69,1-1.11.53-2.08a44,44,0,0,1-3.5-9.75c-.28-1.35-1.32-1.81-2.27-2.41-9.75-6.22-17.5-14.1-20.58-25.61-4-14.79-.57-28.21,8.17-40.43a126.62,126.62,0,0,1,20.33-22c1.41-1.22,1.73-2,.38-3.51-3.53-3.95-3.37-8.22-.57-12.51,6.1-9.38,14-17.12,22.53-24.24a7.48,7.48,0,0,0,2.9-6.26,44.85,44.85,0,0,1,1-8.13,28,28,0,0,1,9.35-15.89l.75-.61a28.84,28.84,0,0,1,12.59-6,25.79,25.79,0,0,1,4-.47c5.09-.22,9.1,1.07,12,4a17.67,17.67,0,0,1,4,6.73c.55,1.57,1.19,1.44,2.23,1.17a110.19,110.19,0,0,1,33-3.67c11.17.51,22,2.46,32.23,7.31a2.89,2.89,0,0,0,2.4.26,4,4,0,0,0,1.44-1,34.67,34.67,0,0,1,8.46-6.32c11.05-5.89,24.71-5.51,35,1.73a26.88,26.88,0,0,1,10.68,14.75,34.85,34.85,0,0,1,1.38,9.11c0,.82,0,1.64,0,2.45a41.84,41.84,0,0,1-11.47,28.15c-1,1.1-1.31,1.7-.21,3.17,9.34,12.56,17.29,25.89,20.58,41.42a58.8,58.8,0,0,1,.3,24.36c-.32,1.58-.82,1.38-1.92.78-1.76-1-3.61-1.77-5.84-2.84A59.79,59.79,0,0,1,349,183.53c.12,1.31,1.17,1.49,1.93,2,7.64,4.71,16.48,12.39,21.31,18.61.84-.47.39-1.26.4-1.86a136,136,0,0,1,1.76-22.59c2.72-15.51,7.71-30.29,17.58-43,7.81-10,17.33-17.46,28.85-21.14Zm-59.68,131V282l-.12-.09Zm59.68-171c-12.39,3.62-23.25,11.36-32.39,23.08S373.24,160.43,370,178.87a119.64,119.64,0,0,0-1.58,14.54,99.34,99.34,0,0,0-15.08-11.7c-.19-1.8-.4-3.51-.67-5.19a3,3,0,0,0,.43,0c1,0,4.27-.34,5.19-4.78a63.55,63.55,0,0,0-.31-26.21c-3.63-17.15-12.63-31.25-20.38-41.82a46,46,0,0,0,11.55-28.87,323.89,323.89,0,0,0,70,9.15l1.66,0ZM29.13,173.3c.8-2.59,2.34-4.06,5.27-3.87a27.86,27.86,0,0,0,4.62-.55,44.67,44.67,0,0,1,9,3.64,30.08,30.08,0,0,1,2.57,1.58c.91.62.44,1.21-.19,1.68a20.27,20.27,0,0,0-2.06,1.73,21.24,21.24,0,0,0-5.17,7.64c-.51,1.29-1.4.94-2.18.55-3.39-1.75-6.84-3.44-10.1-5.42C28.74,179,28.23,176.2,29.13,173.3Zm122.8,11.17a48.45,48.45,0,0,1-5.69,6c-1.15,1.17-2,.14-2.81-.39-6.87-4.53-10.71-11-12.28-19-1.33-6.74-.11-13.12,2.51-19.71a68.36,68.36,0,0,0,16,18.07,2.45,2.45,0,0,1,.84,2.37,21.83,21.83,0,0,0,1.72,9.94A2.44,2.44,0,0,1,151.93,184.47Zm27.57,37.35c-6.93-.34-9.21-5.77-11.73-10.86-1.3-2.59-2.37-5.3-3.55-8a47.69,47.69,0,0,0,2.88,15c.77,2.21,0,2.61-2,2.72-4.91.28-5,.3-7.09-4a90.41,90.41,0,0,1-5.79-15.7c-.22-.83-.75-2.1-.39-2.5,2.13-2.41,4.46-4.63,6.76-6.88.44-.43.82.1,1.16.3,6.11,3.62,12.62,5.64,19.81,5,1-.09,1.47.13,1.5,1.24.14,7.45,2.48,14.36,5.34,21.13.81,1.92.54,2.94-1.84,2.71C182.9,221.88,181.2,221.9,179.5,221.82ZM316.62,106.66c-5.37-6.41-11.26-12.27-19.75-14.45-1.14-.29-1-1-1.05-1.82-.16-13.29,12.31-23.39,21.75-25l.17,0c2.49-.4,4.28.3,5.3,1.92a7,7,0,0,1,1,3.34,13.93,13.93,0,0,1-.52,5,78.38,78.38,0,0,1-6.88,17.09c-1.1,1.94-.47,2.2,1.35,2.17A8.27,8.27,0,0,0,325.21,91a35.77,35.77,0,0,0,5.51-15.24,21,21,0,0,0-.06-6,18.37,18.37,0,0,0-2.57-6.83c-4.16-6.68-13.08-8.55-20.53-6.85a25.26,25.26,0,0,0-7,2.73A39.18,39.18,0,0,0,289.44,69.1,36,36,0,0,0,282,84.24c-3.33-6.18-3.38-12.26-1.89-18.39.46-1.9,0-2.55-1.68-3-2.56-.75-5.06-1.75-7.65-2.4-20.73-5.19-41-2.78-60.74,4.44C191.73,71.57,176.62,83,163.86,97.71c-3.41,3.93-3.73,7.64-1.79,12,.69,1.55,1.67,3,2.47,4.45.93,1.75,2.12,1.7,3.43.51,1.71-1.55,3.36-3.17,5.12-4.82a9.8,9.8,0,0,1-3.44,7.34,61,61,0,0,1-7.85,5.55c-7.72,4.56-15,9.74-20.5,17a28.12,28.12,0,0,1,6.63-1.11c8-.58,15.89-.21,23.52,2.48a9.6,9.6,0,0,1,4.67,3c1.85,2.43,1.63,5.3-.88,8.6a79.37,79.37,0,0,1-15.92,16.2c-1.46,1.08-1.85,2.1-1.27,3.76,2.55,7.42,7.14,12.73,15.11,14.42,6.4,1.35,13,.89,19.45,1.65,7.95.93,15.4,3.29,21.48,8.7a18.3,18.3,0,0,1,6.24,14.25c-2.48-.65-4.62-1.28-6.79-1.75-6.19-1.34-12.4-2.65-18.78-2.55-1.09,0-2.85-.34-2.26,1.87a91.16,91.16,0,0,0,7.05,17.87c-7.12,4.48-14.72,6.56-23.67,4,.62.86.78,1.15,1,1.39,5.08,5.45,11.6,7.49,18.78,7.78,7.69.32,15.1-1.34,22.29-3.83,16.84-5.8,33.87-11.28,47.33-24.08a55.27,55.27,0,0,1-.54,11.95c9.95-5.95,16.66-14.18,22.66-24.09,0,5.41.11,10-.87,14.91a48.84,48.84,0,0,0,21.16-18,46.23,46.23,0,0,0,7.46-26.65,50.26,50.26,0,0,1,11.09,15.63c2.73-8.45,2.7-16.56,1.6-24.73a78.85,78.85,0,0,0-7.51-24c7.29,2.19,12.95,5.87,18.65,10.63a98.09,98.09,0,0,0-6-17C328.87,122,322.94,114.19,316.62,106.66Zm-74.55,7.12c-1.45.76-1.74,1.4-.83,3a16.11,16.11,0,0,1-8.16,23.09,19.75,19.75,0,0,1-22.48-5c-1.17-1.28-2.67-2.31-3.06-4.25-.2-1-1.34-1.33-2.37-1.4-.62,0-1.25,0-1.87,0-11.08-.35-12.84-8.87-11-16.19a17.36,17.36,0,0,1,2.7-5.49c0,1.57-.05,2.44,0,3.3.44,7.11,3.32,8.35,9.31,7.39,4.83-.78,9-3.32,13.28-5.53,6.49-3.37,12.95-6.85,20.19-8.34,4.86-1,9.75-1.15,14.31,1.41a13.61,13.61,0,0,1,5.72,5.9C252.1,110,247,111.22,242.07,113.78Zm-6,2.14s4.71,11.5-4.36,16.68h0a13.12,13.12,0,0,1-4.41,1.66c-7.4,1.2-10.31-7.33-14.92-7.36C214.54,124.67,226.89,114.31,236.11,115.92Zm-107,128.17c5.29-1.6,10.23-4.11,15.46-6.06-6.48,17-9,34.49-4.54,52.9a59.85,59.85,0,0,1-32.95-13.34,34,34,0,0,0,3.45,11.62,49.33,49.33,0,0,1-12.63-5.78,85.31,85.31,0,0,1-21.67-19.19A88.58,88.58,0,0,1,61,234.61c-.48-1.58-.17-2,1.49-1.87s4,1.22,5.14.34a1.45,1.45,0,0,0,.22-.21c.71-.81-.72-3.36-1-5.17a44.43,44.43,0,0,1,.47-15.45c1-5.54,3.69-9.62,7.27-13.45.77-.82.9-1.44.22-2.29s-1.13-1.61-1.75-2.36c-1.49-1.81-2.7-2.69-5.14-.63a18.07,18.07,0,0,1-6.71,3.69,15.12,15.12,0,0,1-8.23,0c-2.95-.79-3-1.19-2.38-4.11a19.26,19.26,0,0,1,8.86-12.47,28.44,28.44,0,0,1,4.14-2.16,10.71,10.71,0,0,1,10,.77c8,5,10.93,12.53,11.38,21.47a99.83,99.83,0,0,1-.75,17.37,3.18,3.18,0,0,0,.87,2.88c11.56,12.28,25.74,19.84,42.18,23.25A3.93,3.93,0,0,0,129.15,244.09ZM48.55,209.4c-.08.89-.76,1.2-1.47,1.3-2.11.29-4.2.84-6.34,0-6.61-2.5-13.15-5.13-18.26-10.27-1.55-1.57-2.53-3.3-1.83-5.72A7,7,0,0,1,30,190q4.29,1.86,8.57,3.76c1.94.86,4,1.71,2.9,4,.11,4.86.88,8.77,5.85,10.13C48.08,208.13,48.65,208.49,48.55,209.4Zm-14.37,18c-7.56-.15-13.3-3.89-14.83-9.3a7.56,7.56,0,0,1-.28-2.36c.29-4.65,1.13-5,5.22-2.81,5.55,3,11.08,6.11,17.34,7.41,2.26.46,2.32,1.41,1.11,3.06C40.44,226.58,37,227,34.18,227.43Zm5.72,10.22a13,13,0,0,0,6-3.45,101.35,101.35,0,0,0-1.6,10.85c-.16,2-1.6,2.78-3.35,2.74a36.18,36.18,0,0,1-15.75-4.43c-2.22-1.15-.28-3.54,0-5.32s1.62-.74,2.51-.54A28.86,28.86,0,0,0,39.9,237.65Zm6.57-79.84c.85-5.19.83-10.3-1.93-15.59l2.87.66c3.65.85,7.24,1.67,10.82,2.56s6.94,1.81,10.44,2.9c-5,4.75-8.67,9.8-10.08,16.23a1.4,1.4,0,0,1-.09.29c-.28.82-.86.93-1.65.39a44.48,44.48,0,0,0-9.33-5l-.35-.14C46.05,159.73,46.33,158.69,46.47,157.81ZM47.41,131,29.9,127.15a8.52,8.52,0,0,1-5.69-3.83,46.53,46.53,0,0,1-7.86-25.23C15.67,66.65,28.16,41.6,54.46,24.28c15.74-10.36,32.89-12.22,50-2.89,13,7.11,20.1,18.89,23.52,33a64.34,64.34,0,0,1,1.57,9.39,39.58,39.58,0,0,1,.12,5.61q0,2.82-.12,5.55a82.25,82.25,0,0,1-8.34,31.51c-5.61,11.72-13.08,22-23.86,29.65-5.06,3.59-9.81,4.64-16.13,3-7.62-2-15.28-3.86-23-5.62Q52.82,132.22,47.41,131Z"/></g></g></svg>