<?xml version="1.0" encoding="utf-8"?>
<!-- Generator: Adobe Illustrator 23.0.5, SVG Export Plug-In . SVG Version: 6.00 Build 0)  -->
<svg version="1.1" id="Nombre_del_proyecto" xmlns="http://www.w3.org/2000/svg" xmlns:xlink="http://www.w3.org/1999/xlink"
	 x="0px" y="0px" viewBox="0 0 500 500" style="enable-background:new 0 0 500 500;" xml:space="preserve">
<style type="text/css">
	.st0{fill:none;}
	.st1{fill:#FFFFFF;}
</style>
<g id="Oscuro_Individual_1_">
	<g>
		<path class="st0" d="M380.3,37.9H119.7c-45.2,0-81.8,36.6-81.8,81.8v260.6c0,45.2,36.6,81.8,81.8,81.8h260.6
			c45.2,0,81.8-36.6,81.8-81.8V119.7C462.1,74.5,425.5,37.9,380.3,37.9z"/>
		<path class="st1" d="M380.3,37.9c45.2,0,81.8,36.6,81.8,81.8v260.6c0,45.2-36.6,81.8-81.8,81.8H119.7c-45.2,0-81.8-36.6-81.8-81.8
			V119.7c0-45.2,36.6-81.8,81.8-81.8L380.3,37.9 M380.3,12.7H119.7C91.1,12.7,64.2,23.8,44,44s-31.4,47.1-31.4,75.7v260.6
			c0,28.6,11.1,55.5,31.4,75.7c20.2,20.2,47.1,31.4,75.7,31.4h260.6c28.6,0,55.5-11.1,75.7-31.4s31.4-47.1,31.4-75.7V119.7
			c0-28.6-11.1-55.5-31.4-75.7S408.9,12.7,380.3,12.7L380.3,12.7z"/>
	</g>
	<g id="Ãcono_2_3_">
		<g>
			<path class="st1" d="M208.3,231.1h-82c-12.5,0-22.8-10.2-22.8-22.8v-82c0-12.5,10.2-22.8,22.8-22.8h82
				c12.5,0,22.8,10.2,22.8,22.8v82C231.1,220.8,220.8,231.1,208.3,231.1z"/>
		</g>
		<g>
			<path class="st1" d="M373.7,116.4c5.5,0,9.9,4.4,9.9,9.9v82c0,5.5-4.4,9.9-9.9,9.9h-82c-5.5,0-9.9-4.4-9.9-9.9v-82
				c0-5.5,4.4-9.9,9.9-9.9H373.7 M373.7,103.5h-82c-12.5,0-22.8,10.2-22.8,22.8v82c0,12.5,10.2,22.8,22.8,22.8h82
				c12.5,0,22.8-10.2,22.8-22.8v-82C396.5,113.8,386.2,103.5,373.7,103.5L373.7,103.5z"/>
		</g>
		<g>
			<path class="st1" d="M208.3,281.8c5.5,0,9.9,4.4,9.9,9.9v82c0,5.5-4.4,9.9-9.9,9.9h-82c-5.5,0-9.9-4.4-9.9-9.9v-82
				c0-5.5,4.4-9.9,9.9-9.9H208.3 M208.3,268.9h-82c-12.5,0-22.8,10.2-22.8,22.8v82c0,12.5,10.2,22.8,22.8,22.8h82
				c12.5,0,22.8-10.2,22.8-22.8v-82C231.1,279.2,220.8,268.9,208.3,268.9L208.3,268.9z"/>
		</g>
		<g>
			<path class="st1" d="M373.7,281.8c5.5,0,9.9,4.4,9.9,9.9v82c0,5.5-4.4,9.9-9.9,9.9h-82c-5.5,0-9.9-4.4-9.9-9.9v-82
				c0-5.5,4.4-9.9,9.9-9.9H373.7 M373.7,268.9h-82c-12.5,0-22.8,10.2-22.8,22.8v82c0,12.5,10.2,22.8,22.8,22.8h82
				c12.5,0,22.8-10.2,22.8-22.8v-82C396.5,279.2,386.2,268.9,373.7,268.9L373.7,268.9z"/>
		</g>
	</g>
</g>
</svg>
