<?xml version="1.0" encoding="utf-8"?>
<!-- Generator: Adobe Illustrator 23.0.5, SVG Export Plug-In . SVG Version: 6.00 Build 0)  -->
<svg version="1.1" id="Capa_1" xmlns="http://www.w3.org/2000/svg" xmlns:xlink="http://www.w3.org/1999/xlink" x="0px" y="0px"
	 viewBox="0 0 1920 1920" style="enable-background:new 0 0 1920 1920;" xml:space="preserve">
<style type="text/css">
	.st0{fill:#121212;}
	.st1{fill:url(#SVGID_1_);}
	.st2{fill:#FFFFFF;}
</style>
<path id="Marco" class="st0" d="M1386.9,0H533.1C239.9,0,0,239.9,0,533.1V1387c0,293.1,239.9,533,533.1,533H1387
	c293.2,0,533.1-239.9,533.1-533.1V533.1C1920,239.9,1680.1,0,1386.9,0z"/>
<g id="Foto_de_Perfil">
	<g>
		<g>
			
				<radialGradient id="SVGID_1_" cx="957.4131" cy="1538.2727" r="1476.1494" gradientTransform="matrix(1 0 0 -1 0 1920)" gradientUnits="userSpaceOnUse">
				<stop  offset="0.27" style="stop-color:#DAE15C"/>
				<stop  offset="1" style="stop-color:#47B449"/>
			</radialGradient>
			<path class="st1" d="M1626.6,956.6l-547,547c-65.8,65.8-173.4,65.8-239.1,0l-547-547c-65.8-65.8-65.8-173.4,0-239.1L643.9,367
				c42.1,42.5,42,111.2-0.4,153.6L446.6,717.5c-65.8,65.8-65.8,173.4,0,239.1l393.9,393.9c65.8,65.8,173.4,65.8,239.1,0l393.9-393.9
				c65.8-65.8,65.8-173.4,0-239.1l-204.8-204.8c-34.9-42.8-32.4-105.8,7.5-145.7l350.5,350.5
				C1692.4,783.3,1692.4,890.9,1626.6,956.6z"/>
		</g>
		<g>
			<path class="st2" d="M908.6,616.5L739.4,785.7c-28.3,28.3-28.3,74.5,0,102.7l169.2,169.2c28.3,28.3,74.5,28.3,102.7,0
				l169.2-169.2c28.3-28.3,28.3-74.5,0-102.7l-169.2-169.2C983.1,588.2,936.9,588.2,908.6,616.5z"/>
		</g>
	</g>
</g>
</svg>
