<?xml version="1.0" encoding="utf-8"?>
<!-- Generator: Adobe Illustrator 23.0.5, SVG Export Plug-In . SVG Version: 6.00 Build 0)  -->
<svg version="1.1" xmlns="http://www.w3.org/2000/svg" xmlns:xlink="http://www.w3.org/1999/xlink" x="0px" y="0px"
	 viewBox="0 0 2100 396.98" style="enable-background:new 0 0 2100 396.98;" xml:space="preserve">
<style type="text/css">
	.st0{display:none;}
	.st1{display:inline;}
	.st2{fill:url(#SVGID_1_);}
	.st3{fill:url(#SVGID_2_);}
	.st4{fill:url(#SVGID_3_);}
	.st5{fill:url(#SVGID_4_);}
	.st6{fill:#FFFFFF;}
	.st7{fill:#121212;}
	.st8{fill:url(#SVGID_5_);}
	.st9{fill:url(#SVGID_6_);}
	.st10{fill:url(#SVGID_7_);}
	.st11{fill:url(#SVGID_8_);}
	.st12{fill:url(#SVGID_9_);}
	.st13{fill:url(#SVGID_10_);}
	.st14{fill:url(#SVGID_11_);}
	.st15{fill:url(#SVGID_12_);}
	.st16{fill:url(#SVGID_13_);}
	.st17{fill:url(#SVGID_14_);}
	.st18{fill:url(#SVGID_15_);}
	.st19{fill:url(#SVGID_16_);}
	.st20{fill:url(#SVGID_17_);}
	.st21{fill:url(#SVGID_18_);}
	.st22{fill:url(#SVGID_19_);}
	.st23{fill:url(#SVGID_20_);}
	.st24{fill:url(#SVGID_21_);}
	.st25{fill:url(#SVGID_22_);}
	.st26{fill:url(#SVGID_23_);}
	.st27{fill:url(#SVGID_24_);}
	.st28{opacity:0.1;}
	.st29{opacity:0.05;}
	.st30{fill:url(#SVGID_25_);}
	.st31{fill:url(#SVGID_26_);}
	.st32{fill:url(#SVGID_27_);}
	.st33{fill:#1A1A1A;}
</style>
<g id="Fondos" class="st0">
	<g class="st1">
		<rect x="0.5" y="-161.01" class="st7" width="2099" height="719"/>
		<path d="M2099-160.51v718H1v-718H2099 M2100-161.51H0v720h2100V-161.51L2100-161.51z"/>
	</g>
</g>
<g id="Nombre_horizontal">
</g>
<g id="Logo_y_nombbre_horizontal">
	<g>
		<g>
			<g>
				<radialGradient id="SVGID_1_" cx="230.0824" cy="14.4047" r="469.9118" gradientUnits="userSpaceOnUse">
					<stop  offset="0.27" style="stop-color:#DAE15C"/>
					<stop  offset="1" style="stop-color:#47B449"/>
				</radialGradient>
				<path class="st2" d="M443.11,197.42L268.97,371.56c-20.93,20.93-55.19,20.93-76.13,0L18.7,197.42
					c-20.94-20.94-20.94-55.19,0-76.13L130.28,9.72c13.41,13.54,13.37,35.39-0.13,48.88l-62.69,62.69
					c-20.93,20.93-20.94,55.19,0,76.13L192.84,322.8c20.93,20.93,55.19,20.93,76.13,0l125.38-125.38
					c20.93-20.93,20.93-55.19,0-76.13l-65.2-65.2c-11.1-13.61-10.31-33.69,2.38-46.38l111.58,111.58
					C464.05,142.23,464.05,176.48,443.11,197.42z"/>
			</g>
			<g>
				<path class="st6" d="M214.55,89.14L160.69,143c-8.99,8.99-8.99,23.71,0,32.7l53.87,53.87c8.99,8.99,23.71,8.99,32.7,0
					l53.87-53.87c8.99-8.99,8.99-23.71,0-32.7l-53.87-53.87C238.26,80.14,223.55,80.14,214.55,89.14z"/>
			</g>
		</g>
		<g>
			<path class="st6" d="M598.88,262.24l-10.91-12.98h84.89l-5.05,28.49H566.03l28.26-160.82H694l-5.05,28.49h-82.59l15.51-12.98
				L598.88,262.24z M604.86,179.65h62.26l-5.05,28.49H599.8L604.86,179.65z"/>
			<path class="st6" d="M695.38,217.1l4.14-21.6h68.23l-3.91,21.6H695.38z"/>
			<path class="st6" d="M780.84,277.75l20.22-114.87h25.04l1.72,10.11l-18.49,104.76H780.84z M849.53,277.75
				c2.37-13.33,4.31-24.35,5.8-33.08c1.49-8.73,2.66-15.7,3.5-20.91c0.84-5.21,1.45-9.15,1.84-11.83c0.38-2.68,0.61-4.56,0.69-5.63
				c0.08-1.07,0.11-1.91,0.11-2.53c0-6.66-1.28-11.54-3.85-14.65c-2.57-3.1-6.72-4.65-12.46-4.65c-4.67,0-8.75,1-12.23,2.99
				c-3.49,1.99-6.91,4.79-10.28,8.39l3.22-25.16c4.06-2.68,8.48-4.96,13.27-6.83c4.79-1.88,10.4-2.81,16.83-2.81
				c11.87,0,20.62,3.62,26.25,10.86c5.63,7.24,8.44,16.56,8.44,27.97c0,0.92-0.06,2.07-0.17,3.45s-0.36,3.52-0.75,6.43
				c-0.38,2.91-1.03,7.1-1.95,12.58c-0.92,5.48-2.14,12.69-3.68,21.65c-1.53,8.96-3.49,20.22-5.86,33.77H849.53z"/>
			<path class="st6" d="M903.98,277.75l20.22-114.87h25.04l1.72,10.11l-18.49,104.76H903.98z M972.67,277.75
				c2.37-13.33,4.31-24.35,5.8-33.08c1.49-8.73,2.66-15.7,3.5-20.91c0.84-5.21,1.45-9.15,1.84-11.83c0.38-2.68,0.61-4.56,0.69-5.63
				c0.08-1.07,0.11-1.91,0.11-2.53c0-6.66-1.28-11.54-3.85-14.65c-2.57-3.1-6.72-4.65-12.46-4.65c-4.67,0-8.75,1-12.23,2.99
				c-3.49,1.99-6.91,4.79-10.28,8.39l3.22-25.16c4.06-2.68,8.48-4.96,13.27-6.83c4.79-1.88,10.4-2.81,16.83-2.81
				c11.87,0,20.62,3.62,26.25,10.86c5.63,7.24,8.44,16.56,8.44,27.97c0,0.92-0.06,2.07-0.17,3.45s-0.36,3.52-0.75,6.43
				c-0.38,2.91-1.03,7.1-1.95,12.58c-0.92,5.48-2.14,12.69-3.68,21.65c-1.53,8.96-3.49,20.22-5.86,33.77H972.67z"/>
			<path class="st6" d="M1076.98,280.05c-10.65,0-19.49-2.24-26.54-6.72c-7.05-4.48-12.31-10.45-15.79-17.92
				c-3.49-7.47-5.23-15.72-5.23-24.75c0-9.04,1.65-17.71,4.94-26.02c3.29-8.31,7.93-15.74,13.9-22.29
				c5.97-6.55,13.06-11.74,21.25-15.57c8.19-3.83,17.19-5.74,26.99-5.74c10.64,0,19.49,2.24,26.54,6.72
				c7.04,4.48,12.31,10.45,15.79,17.92c3.48,7.47,5.23,15.72,5.23,24.75c0,9.04-1.65,17.71-4.94,26.02
				c-3.29,8.31-7.93,15.74-13.9,22.29c-5.97,6.55-13.06,11.74-21.25,15.56C1095.78,278.13,1086.78,280.05,1076.98,280.05z
				 M1080.88,256.61c6.66,0,12.54-2.03,17.63-6.09c5.09-4.06,9.06-9.44,11.89-16.14c2.83-6.7,4.25-13.99,4.25-21.88
				c0-8.73-1.86-15.58-5.57-20.56c-3.72-4.98-9.21-7.47-16.48-7.47c-6.59,0-12.43,1.99-17.52,5.97c-5.09,3.98-9.08,9.3-11.95,15.97
				c-2.87,6.66-4.31,13.98-4.31,21.94c0,8.73,1.84,15.62,5.51,20.68C1068.02,254.09,1073.53,256.61,1080.88,256.61z"/>
			<path class="st6" d="M1180.82,277.75l-22.29-114.87h27.8l14.47,92.59l-8.16-1.38l46.98-91.21h27.57l-62.95,114.87H1180.82z"/>
			<path class="st6" d="M1306.26,280.05c-8.88,0-16.5-2.07-22.86-6.2c-6.36-4.14-11.22-9.8-14.59-17
				c-3.37-7.2-5.05-15.39-5.05-24.58c0-8.96,1.47-17.67,4.42-26.13c2.95-8.46,7.24-16.1,12.87-22.92
				c5.63-6.81,12.42-12.21,20.39-16.2c7.96-3.98,16.92-5.97,26.88-5.97c5.28,0,9.84,0.65,13.67,1.95c3.83,1.3,7.25,3.16,10.28,5.57
				c3.02,2.41,5.88,5.3,8.56,8.67l-10.8,5.97l8.16-20.33H1383l-13.33,78.57c-0.61,3.68-0.92,6.59-0.92,8.73
				c0,3.22,0.82,5.09,2.47,5.63c1.65,0.54,4.58,0.8,8.79,0.8l-6.43,23.43c-7.2,0-12.83-0.29-16.89-0.86
				c-4.06-0.57-7.2-1.65-9.42-3.22c-2.22-1.57-4.14-3.83-5.74-6.78c-1.61-2.95-3.56-6.76-5.86-11.43l9.53,4.25
				c-2.83,2.6-6.01,5.3-9.53,8.1c-3.52,2.8-7.66,5.15-12.41,7.06C1318.52,279.09,1312.85,280.05,1306.26,280.05z M1315.91,256.61
				c6.36,0,11.56-1.53,15.62-4.6c4.06-3.06,7.2-7.01,9.42-11.83c2.22-4.82,3.77-9.86,4.65-15.11c0.88-5.24,1.32-10.05,1.32-14.42
				c0-8.04-1.61-14.42-4.82-19.13c-3.22-4.71-8.5-7.06-15.85-7.06c-6.51,0-12.23,1.99-17.17,5.97c-4.94,3.98-8.79,9.32-11.54,16.02
				c-2.76,6.7-4.14,14.07-4.14,22.11c0,8.35,1.78,15.11,5.34,20.27C1302.3,254.03,1308.03,256.61,1315.91,256.61z"/>
			<path class="st6" d="M1449.39,277.75l28.26-160.82h57.9c12.79,0,23.95,2.57,33.48,7.7c9.54,5.13,16.94,12.68,22.23,22.63
				c5.28,9.96,7.93,22.21,7.93,36.76c0,13.86-2.39,26.54-7.18,38.02c-4.79,11.49-11.39,21.39-19.82,29.69
				c-8.43,8.31-18.19,14.72-29.29,19.24c-11.1,4.52-22.97,6.78-35.61,6.78H1449.39z M1481.56,262.47l-10.91-12.98h41.7
				c8.88,0,16.71-1.65,23.49-4.94c6.78-3.29,12.46-7.83,17.06-13.61c4.59-5.78,8.06-12.44,10.4-19.99c2.34-7.54,3.5-15.6,3.5-24.18
				c0-13.55-2.99-23.87-8.96-30.96c-5.97-7.08-15.01-10.63-27.11-10.63h-41.7l15.51-12.98L1481.56,262.47z"/>
			<path class="st6" d="M1637.32,211.7c2.68,0.69,5.07,1.15,7.18,1.38c2.11,0.23,4.46,0.34,7.07,0.34c9.34,0,16.6-0.86,21.77-2.58
				c5.17-1.72,8.77-3.94,10.8-6.66c2.03-2.72,3.04-5.53,3.04-8.44c0-3.45-0.94-5.97-2.81-7.58c-1.88-1.61-3.98-2.62-6.32-3.04
				c-2.34-0.42-4.19-0.63-5.57-0.63c-6.2,0-11.53,1.72-15.97,5.17c-4.44,3.45-7.98,7.47-10.63,12.06c-2.64,4.6-4.38,8.62-5.23,12.06
				l-2.07,14.24c0.08,7.05,1.4,12.66,3.96,16.83c2.56,4.17,5.88,7.18,9.94,9.02c4.06,1.84,8.27,2.76,12.64,2.76
				c6.89,0,13.4-0.92,19.53-2.76c6.13-1.84,11.64-4.06,16.54-6.66l-3.22,24.12c-4.67,2.53-10.28,4.61-16.83,6.26
				s-13.73,2.47-21.54,2.47c-11.64,0-21.21-2.2-28.72-6.6c-7.51-4.4-13.06-10.34-16.66-17.81c-3.6-7.47-5.4-15.79-5.4-24.98
				c0-8.81,1.53-17.35,4.59-25.62c3.06-8.27,7.43-15.72,13.09-22.34c5.67-6.62,12.48-11.89,20.45-15.79
				c7.96-3.91,16.85-5.86,26.65-5.86c12.18,0,21.46,3.04,27.86,9.13c6.39,6.09,9.59,14.15,9.59,24.18c0,6.97-1.49,12.87-4.48,17.69
				c-2.99,4.82-7.06,8.71-12.23,11.66c-5.17,2.95-11.03,5.07-17.58,6.38c-6.55,1.3-13.42,1.95-20.62,1.95
				c-4.21,0-8.12-0.19-11.72-0.57c-3.6-0.38-6.55-0.88-8.85-1.49L1637.32,211.7z"/>
			<path class="st6" d="M1751.96,280.05c-7.12,0-13.94-0.82-20.45-2.47c-6.51-1.65-12.41-3.66-17.69-6.03l6.66-24.35
				c4.52,2.76,9.67,5.36,15.45,7.81c5.78,2.45,11.81,3.68,18.09,3.68c5.9,0,10.2-1.26,12.92-3.79c2.72-2.53,4.08-5.63,4.08-9.3
				c0-4.37-1.44-7.62-4.31-9.76c-2.87-2.14-7.26-4.17-13.15-6.09c-5.21-1.76-9.88-3.79-14.01-6.09c-4.14-2.3-7.39-5.32-9.76-9.08
				c-2.38-3.75-3.56-8.65-3.56-14.7c0-7.35,1.86-13.96,5.57-19.82c3.71-5.86,9.13-10.49,16.25-13.9c7.12-3.41,15.85-5.11,26.19-5.11
				c7.35,0,13.9,0.84,19.64,2.53c5.74,1.69,10.61,3.68,14.59,5.97l-6.2,22.97c-3.98-2.91-8.54-5.47-13.67-7.7
				c-5.13-2.22-10.99-3.33-17.58-3.33c-5.28,0-9.63,0.98-13.04,2.93c-3.41,1.95-5.11,5.19-5.11,9.71c0,4.9,2.09,8.35,6.26,10.34
				c4.17,1.99,9.51,4.21,16.02,6.66c5.44,1.99,9.99,4.31,13.67,6.95s6.45,5.9,8.33,9.76c1.88,3.87,2.81,8.63,2.81,14.3
				c0,5.21-1.02,10.11-3.04,14.7c-2.03,4.59-5.07,8.64-9.13,12.12c-4.06,3.49-9.08,6.2-15.05,8.16
				C1766.78,279.07,1759.85,280.05,1751.96,280.05z"/>
			<path class="st6" d="M1813.99,277.75l20.22-114.87h28.49l-20.22,114.87H1813.99z M1837.42,145.42l4.82-28.49h28.72l-5.05,28.49
				H1837.42z"/>
			<path class="st6" d="M1904.51,335.19c-11.26,0-20.33-1.44-27.22-4.31c-6.89-2.87-11.93-6.61-15.11-11.2
				c-3.18-4.59-4.77-9.46-4.77-14.59c0-4.59,1.05-8.73,3.16-12.41c2.11-3.68,5.04-7.01,8.79-9.99c3.75-2.99,8.08-5.74,12.98-8.27
				l18.72,7.58c-3.22,0.92-6.34,2.14-9.36,3.68c-3.03,1.53-5.51,3.46-7.47,5.8c-1.95,2.34-2.93,5.19-2.93,8.56
				c0,4.67,2.16,8.33,6.49,10.97c4.33,2.64,10.43,3.96,18.32,3.96c5.74,0,11.05-0.69,15.91-2.07c4.86-1.38,8.75-3.31,11.66-5.8
				c2.91-2.49,4.37-5.38,4.37-8.67c0-3.75-1.55-6.55-4.65-8.39c-3.1-1.84-7.12-3.22-12.06-4.14s-10.17-1.76-15.68-2.53
				c-5.51-0.77-10.74-1.86-15.68-3.27c-4.94-1.42-8.96-3.56-12.06-6.43c-3.1-2.87-4.65-6.95-4.65-12.23c0-4.44,1.4-8.17,4.19-11.2
				c2.79-3.02,6.68-5.69,11.66-7.98l15.28,7.47c-1.38,0.31-2.47,0.9-3.27,1.78c-0.8,0.88-1.21,1.97-1.21,3.27
				c0,2.6,2.28,4.44,6.83,5.51c4.55,1.07,10.63,2.15,18.21,3.22c3.68,0.54,7.73,1.3,12.18,2.3c4.44,1,8.69,2.55,12.75,4.65
				c4.06,2.11,7.39,5.04,9.99,8.79c2.6,3.75,3.91,8.69,3.91,14.82c0,7.73-2.35,14.7-7.06,20.91c-4.71,6.2-11.49,11.12-20.33,14.76
				C1927.54,333.37,1916.91,335.19,1904.51,335.19z M1913.7,251.56c-12.33,0-21.69-3.39-28.09-10.17
				c-6.4-6.78-9.59-15.95-9.59-27.51c0-9.19,2.2-17.81,6.61-25.85c4.4-8.04,10.59-14.55,18.55-19.53
				c7.96-4.98,17.35-7.47,28.14-7.47c11.41,0,20.54,3.18,27.4,9.53c6.85,6.36,10.28,15.58,10.28,27.68c0,6.97-1.23,13.63-3.68,19.99
				c-2.45,6.36-5.99,12.04-10.63,17.06c-4.63,5.02-10.24,8.98-16.83,11.89C1929.28,250.11,1921.89,251.56,1913.7,251.56z
				 M1917.37,230.65c5.13,0,9.5-1.36,13.1-4.08c3.6-2.72,6.34-6.34,8.21-10.86c1.88-4.52,2.81-9.42,2.81-14.7
				c0-6.13-1.3-10.84-3.91-14.13c-2.6-3.29-6.66-4.94-12.18-4.94c-5.13,0-9.48,1.38-13.04,4.14c-3.56,2.76-6.26,6.4-8.1,10.91
				c-1.84,4.52-2.76,9.46-2.76,14.82c0,5.97,1.26,10.61,3.79,13.9C1907.84,229.01,1911.86,230.65,1917.37,230.65z M1962.17,181.37
				l-9.88-12.87c1.99-1.38,5.26-2.66,9.82-3.85c4.56-1.19,9.63-1.78,15.22-1.78h7.81l-4.82,17.92h-10.8c-0.77,0-1.8,0.02-3.1,0.06
				C1965.12,180.9,1963.7,181.07,1962.17,181.37z"/>
			<path class="st6" d="M1981.47,277.75l20.22-114.87h25.04l1.72,10.11l-18.49,104.76H1981.47z M2050.16,277.75
				c2.37-13.33,4.31-24.35,5.8-33.08c1.49-8.73,2.66-15.7,3.5-20.91c0.84-5.21,1.45-9.15,1.84-11.83c0.38-2.68,0.61-4.56,0.69-5.63
				c0.08-1.07,0.11-1.91,0.11-2.53c0-6.66-1.28-11.54-3.85-14.65c-2.57-3.1-6.72-4.65-12.46-4.65c-4.67,0-8.75,1-12.23,2.99
				c-3.49,1.99-6.91,4.79-10.28,8.39l3.22-25.16c4.06-2.68,8.48-4.96,13.27-6.83c4.79-1.88,10.4-2.81,16.83-2.81
				c11.87,0,20.62,3.62,26.25,10.86s8.44,16.56,8.44,27.97c0,0.92-0.06,2.07-0.17,3.45c-0.12,1.38-0.37,3.52-0.75,6.43
				c-0.38,2.91-1.03,7.1-1.95,12.58c-0.92,5.48-2.14,12.69-3.68,21.65c-1.53,8.96-3.49,20.22-5.86,33.77H2050.16z"/>
		</g>
	</g>
</g>
<g id="Logo_y_nombre_central">
</g>
<g id="Foto_de_Perfil">
</g>
<g id="Construcción_Logo" class="st0">
</g>
</svg>
